<svg xmlns="http://www.w3.org/2000/svg" width="1000" height="923.76" viewBox="0 0 1000 923.76">
<rect width="1000" height="923.76" fill="#000000"/>
<polygon points="860.53,851.20 873.15,852.64 795.72,823.06 783.09,821.63" fill="#F6F6F6"/>
<polygon points="927.21,576.34 800.36,792.80 873.15,852.63 1000.00,636.18" fill="#F6F6F6"/>
<polygon points="783.09,821.63 873.15,852.64 927.21,576.34 837.15,545.33" fill="#F6F6F6"/>
<polygon points="285.95,868.47 713.59,140.59 644.07,93.57 216.43,821.45" fill="#F6F6F6"/>
<polygon points="334.34,891.68 692.45,116.77 644.07,93.57 285.95,868.47" fill="#F6F6F6"/>
<polygon points="380.09,907.51 469.84,923.76 424.09,907.92 334.34,891.68" fill="#F6F6F6"/>
<polygon points="469.84,923.76 534.96,923.35 399.45,891.28 334.34,891.68" fill="#F6F6F6"/>
<polygon points="534.96,923.35 600.07,912.79 399.45,881.12 334.34,891.68" fill="#F6F6F6"/>
<polygon points="600.07,912.79 661.66,893.44 395.93,872.33 334.34,891.68" fill="#F6F6F6"/>
<polygon points="661.66,893.44 719.74,865.31 392.41,863.55 334.34,891.68" fill="#F6F6F6"/>
<polygon points="719.74,865.31 783.09,821.63 397.69,848.00 334.34,891.68" fill="#F6F6F6"/>
<polygon points="783.09,821.63 927.21,576.34 478.46,646.40 334.34,891.68" fill="#F6F6F6"/>
<polygon points="933.56,521.79 933.53,468.99 927.19,523.55 927.21,576.34" fill="#F6F6F6"/>
<polygon points="933.53,468.99 928.13,426.76 921.80,534.11 927.21,576.34" fill="#F6F6F6"/>
<polygon points="928.13,426.76 906.61,347.56 905.69,497.15 927.21,576.34" fill="#F6F6F6"/>
<polygon points="906.61,347.56 873.20,278.93 893.80,507.71 927.21,576.34" fill="#F6F6F6"/>
<polygon points="873.20,278.93 829.63,219.10 883.64,516.51 927.21,576.34" fill="#F6F6F6"/>
<polygon points="829.63,219.10 776.05,167.28 873.63,524.53 927.21,576.34" fill="#F6F6F6"/>
<polygon points="776.05,167.28 710.94,123.71 862.10,532.77 927.21,576.34" fill="#F6F6F6"/>
<polygon points="710.94,123.71 644.07,93.57 860.34,546.20 927.21,576.34" fill="#F6F6F6"/>
<polygon points="644.07,93.57 51.19,408.91 334.34,891.68 927.21,576.34" fill="#F6F6F6"/>
<polygon points="370.58,4.40 355.45,93.90 359.68,89.68 374.81,0.17" fill="#F6F6F6"/>
<polygon points="628.23,2.25 621.19,0.00 637.03,91.31 644.07,93.57" fill="#F6F6F6"/>
<polygon points="374.81,0.17 397.69,93.74 644.07,93.57 621.19,0.00" fill="#F6F6F6"/>
<polygon points="644.07,93.57 374.81,0.17 355.45,93.90 624.71,187.30" fill="#F6F6F6"/>
<polygon points="5.25,630.12 0.00,637.94 67.50,584.16 72.75,576.34" fill="#F6F6F6"/>
<polygon points="126.68,852.78 139.00,851.20 12.32,636.36 0.00,637.94" fill="#F6F6F6"/>
<polygon points="72.75,576.34 0.00,637.94 138.99,851.20 211.74,789.61" fill="#F6F6F6"/>
<polygon points="216.43,821.45 644.07,93.57 566.63,123.32 138.99,851.20" fill="#F6F6F6"/>
<polygon points="355.45,93.90 270.98,134.27 559.59,133.93 644.07,93.57" fill="#F6F6F6"/>
<polygon points="270.98,134.27 221.71,169.04 594.79,128.34 644.07,93.57" fill="#F6F6F6"/>
<polygon points="221.71,169.04 171.65,217.34 594.01,141.86 644.07,93.57" fill="#F6F6F6"/>
<polygon points="171.65,217.34 124.56,282.45 596.98,158.68 644.07,93.57" fill="#F6F6F6"/>
<polygon points="94.67,344.05 73.15,419.72 103.05,358.12 124.56,282.45" fill="#F6F6F6"/>
<polygon points="73.15,419.72 65.96,479.55 117.37,342.28 124.56,282.45" fill="#F6F6F6"/>
<polygon points="65.96,479.55 65.99,514.75 124.59,317.65 124.56,282.45" fill="#F6F6F6"/>
<polygon points="65.99,514.75 72.75,576.34 131.32,344.04 124.56,282.45" fill="#F6F6F6"/>
<polygon points="139.00,851.20 190.81,557.31 124.56,282.45 72.75,576.34" fill="#F6F6F6"/>
<polygon points="138.99,851.20 658.50,662.32 644.07,93.57 124.56,282.45" fill="#F6F6F6"/>
<polygon points="248.32,604.50 211.37,600.09 193.55,628.44 230.51,632.85" fill="#1C3D75"/>
<polygon points="248.96,595.70 234.03,551.11 233.39,559.91 248.32,604.50" fill="#1C3D75"/>
<polygon points="193.55,628.44 248.32,604.50 234.03,551.11 179.25,575.05" fill="#1C3D75"/>
<polygon points="174.09,571.06 205.77,553.29 230.51,527.11 198.83,544.88" fill="#1C3D75"/>
<polygon points="230.51,527.11 229.95,535.91 234.17,539.38 234.73,530.59" fill="#1C3D75"/>
<polygon points="204.13,555.22 232.34,533.25 202.30,549.09 174.09,571.06" fill="#1C3D75"/>
<polygon points="202.30,549.09 204.13,555.22 232.34,533.25 230.51,527.11" fill="#1C3D75"/>
<polygon points="202.30,549.09 204.13,555.22 234.17,539.39 232.34,533.25" fill="#1C3D75"/>
<polygon points="210.44,529.71 230.24,497.15 209.98,512.11 190.19,544.66" fill="#1C3D75"/>
<polygon points="209.98,512.11 210.44,529.71 230.24,497.15 229.78,479.55" fill="#1C3D75"/>
<polygon points="209.98,512.11 210.44,529.71 230.70,514.75 230.24,497.15" fill="#1C3D75"/>
<polygon points="839.41,380.29 804.52,328.75 712.70,325.94 747.59,377.48" fill="#1C3D75"/>
<polygon points="781.33,427.79 767.11,430.28 789.99,440.12 804.21,437.64" fill="#1C3D75"/>
<polygon points="804.21,437.64 767.11,430.28 773.41,484.83 810.51,492.19" fill="#1C3D75"/>
<polygon points="153.07,702.54 198.83,753.28 318.50,696.79 272.74,646.05" fill="#1C3D75"/>
<polygon points="110.49,720.64 149.29,744.40 147.26,699.53 108.47,675.77" fill="#1C3D75"/>
<polygon points="149.29,744.40 108.47,675.77 110.49,720.64 151.31,789.27" fill="#1C3D75"/>
<polygon points="110.50,720.64 149.29,744.40 108.47,675.77 69.68,652.02" fill="#1C3D75"/>
<polygon points="869.14,597.46 787.59,737.95 849.97,788.99 931.51,648.50" fill="#1C3D75"/>
<polygon points="772.53,762.18 849.97,788.99 869.14,597.46 791.70,570.65" fill="#1C3D75"/>
<polygon points="869.65,405.64 850.30,349.32 861.26,412.68 880.61,468.99" fill="#1C3D75"/>
<polygon points="853.13,374.84 868.29,434.68 865.45,409.16 850.29,349.32" fill="#1C3D75"/>
<polygon points="865.45,409.16 853.13,374.84 868.29,434.68 880.61,468.99" fill="#1C3D75"/>
<polygon points="865.45,409.16 853.13,374.84 855.97,400.36 868.29,434.68" fill="#1C3D75"/>
<polygon points="420.57,52.84 435.25,131.78 596.55,132.62 581.87,53.67" fill="#1C3D75"/>
<polygon points="414.56,64.23 403.35,132.86 409.36,121.47 420.57,52.84" fill="#1C3D75"/>
<polygon points="596.55,132.62 420.57,52.84 403.35,132.87 579.34,212.65" fill="#1C3D75"/>
<polygon points="69.67,652.02 147.26,699.53 149.71,691.82 72.12,644.31" fill="#1C3D75"/>
<polygon points="72.12,644.31 124.74,679.50 183.91,632.66 131.29,597.46" fill="#1C3D75"/>
<polygon points="128.01,638.48 109.69,671.92 147.26,699.53 165.58,666.09" fill="#1C3D75"/>
<polygon points="165.58,666.09 128.02,638.48 72.12,644.31 109.69,671.92" fill="#1C3D75"/>
<polygon points="109.69,671.92 165.58,666.09 183.91,632.66 128.01,638.48" fill="#1C3D75"/>
<polygon points="209.98,512.11 235.26,450.51 215.46,483.07 190.19,544.67" fill="#1C3D75"/>
<polygon points="215.46,483.07 209.98,512.11 235.26,450.52 240.74,421.48" fill="#1C3D75"/>
<polygon points="215.46,483.07 209.98,512.11 229.78,479.55 235.26,450.51" fill="#1C3D75"/>
<polygon points="712.70,325.94 839.41,380.29 817.38,356.15 690.67,301.81" fill="#1C3D75"/>
<polygon points="318.50,696.79 153.07,702.54 186.51,728.50 351.93,722.76" fill="#1C3D75"/>
<polygon points="153.07,702.54 147.26,699.53 222.93,759.16 228.75,762.17" fill="#1C3D75"/>
<polygon points="188.00,730.85 149.29,744.40 151.31,789.27 190.03,775.72" fill="#1C3D75"/>
<polygon points="190.03,775.72 188.00,730.85 147.26,699.53 149.29,744.40" fill="#1C3D75"/>
<polygon points="149.29,744.40 190.03,775.72 228.75,762.17 188.00,730.85" fill="#1C3D75"/>
<polygon points="186.46,557.97 194.51,544.77 182.14,557.86 174.09,571.06" fill="#1C3D75"/>
<polygon points="186.46,557.97 194.51,544.77 190.19,544.66 182.14,557.86" fill="#1C3D75"/>
<polygon points="194.51,544.77 182.14,557.86 186.46,557.97 198.83,544.88" fill="#1C3D75"/>
<polygon points="143.95,363.40 236.30,421.48 260.91,370.44 168.56,312.37" fill="#1C3D75"/>
<polygon points="122.43,444.36 118.92,516.51 140.44,435.56 143.95,363.40" fill="#1C3D75"/>
<polygon points="118.92,516.51 131.29,597.46 156.31,444.35 143.95,363.40" fill="#1C3D75"/>
<polygon points="174.09,571.06 190.19,544.67 147.38,571.06 131.29,597.46" fill="#1C3D75"/>
<polygon points="190.19,544.67 240.74,421.48 181.84,474.27 131.29,597.46" fill="#1C3D75"/>
<polygon points="240.74,421.48 260.91,370.44 151.45,546.43 131.28,597.46" fill="#1C3D75"/>
<polygon points="196.10,483.95 202.43,366.92 143.95,363.40 137.62,480.43" fill="#1C3D75"/>
<polygon points="137.62,480.43 196.10,483.95 260.91,370.44 202.43,366.92" fill="#1C3D75"/>
<polygon points="202.43,366.93 137.62,480.43 131.29,597.46 196.10,483.95" fill="#1C3D75"/>
<polygon points="690.67,301.81 839.41,380.29 791.04,342.98 642.31,264.50" fill="#1C3D75"/>
<polygon points="642.31,264.50 839.41,380.29 850.29,349.32 653.19,233.54" fill="#1C3D75"/>
<polygon points="804.21,437.64 773.41,484.83 789.25,484.83 820.05,437.64" fill="#1C3D75"/>
<polygon points="351.93,722.76 153.07,702.54 188.27,722.01 387.13,742.22" fill="#1C3D75"/>
<polygon points="820.05,437.64 773.41,484.83 805.09,462.47 851.73,415.28" fill="#1C3D75"/>
<polygon points="845.89,483.91 851.73,415.28 773.41,484.83 767.58,553.46" fill="#1C3D75"/>
<polygon points="387.13,742.22 153.07,702.54 219.95,723.93 454.00,763.61" fill="#1C3D75"/>
<polygon points="454.00,763.61 153.07,702.54 228.75,762.17 529.68,823.24" fill="#1C3D75"/>
<polygon points="183.91,632.66 193.55,628.44 140.93,593.24 131.29,597.46" fill="#1C3D75"/>
<polygon points="179.47,573.09 131.29,597.46 185.84,575.48 234.03,551.11" fill="#1C3D75"/>
<polygon points="162.42,612.95 213.79,589.77 182.65,574.29 131.28,597.46" fill="#1C3D75"/>
<polygon points="182.66,574.29 162.42,612.95 213.79,589.77 234.03,551.11" fill="#1C3D75"/>
<polygon points="182.66,574.29 162.42,612.95 193.55,628.44 213.79,589.77" fill="#1C3D75"/>
<polygon points="136.66,599.49 179.47,573.09 174.09,571.06 131.29,597.46" fill="#1C3D75"/>
<polygon points="772.53,762.17 802.91,566.49 748.35,609.78 717.98,805.47" fill="#1C3D75"/>
<polygon points="869.14,597.46 844.96,445.06 748.35,609.78 772.53,762.17" fill="#1C3D75"/>
<polygon points="880.76,523.55 880.61,468.99 868.99,542.91 869.14,597.46" fill="#1C3D75"/>
<polygon points="880.61,468.99 851.73,415.28 840.25,543.75 869.14,597.46" fill="#1C3D75"/>
<polygon points="767.58,553.46 748.35,609.78 832.50,471.60 851.73,415.28" fill="#1C3D75"/>
<polygon points="800.04,512.53 808.74,603.62 869.14,597.46 860.43,506.37" fill="#1C3D75"/>
<polygon points="808.74,603.62 860.43,506.37 800.04,512.53 748.35,609.78" fill="#1C3D75"/>
<polygon points="800.04,512.53 808.74,603.62 860.43,506.37 851.73,415.28" fill="#1C3D75"/>
<polygon points="299.14,816.03 524.40,817.47 454.00,763.61 228.75,762.17" fill="#1C3D75"/>
<polygon points="358.97,845.92 513.84,793.50 454.00,763.61 299.14,816.03" fill="#1C3D75"/>
<polygon points="401.21,860.00 496.24,777.69 454.00,763.61 358.97,845.92" fill="#1C3D75"/>
<polygon points="446.97,869.20 499.76,772.81 454.00,763.61 401.21,860.00" fill="#1C3D75"/>
<polygon points="517.36,872.32 524.40,766.73 454.00,763.61 446.97,869.20" fill="#1C3D75"/>
<polygon points="584.23,863.52 658.14,838.89 591.27,847.68 517.36,872.32" fill="#1C3D75"/>
<polygon points="658.15,838.89 717.98,805.47 577.19,838.90 517.36,872.32" fill="#1C3D75"/>
<polygon points="523.52,766.40 454.00,763.61 648.47,802.67 717.98,805.47" fill="#1C3D75"/>
<polygon points="585.99,784.54 485.68,817.96 517.36,872.32 617.67,838.89" fill="#1C3D75"/>
<polygon points="485.68,817.96 617.67,838.89 585.99,784.54 454.00,763.61" fill="#1C3D75"/>
<polygon points="585.99,784.54 485.68,817.96 617.67,838.89 717.98,805.47" fill="#1C3D75"/>
<polygon points="667.82,813.94 717.98,805.47 573.67,757.93 523.52,766.40" fill="#1C3D75"/>
<polygon points="279.42,340.53 187.07,282.45 168.56,312.37 260.91,370.44" fill="#1C3D75"/>
<polygon points="666.94,824.69 717.98,805.47 624.71,738.70 573.67,757.93" fill="#1C3D75"/>
<polygon points="318.50,295.75 207.63,267.59 168.56,312.37 279.42,340.53" fill="#1C3D75"/>
<polygon points="671.34,772.09 694.22,757.29 670.46,709.11 647.59,723.91" fill="#1C3D75"/>
<polygon points="647.59,723.91 671.34,772.09 717.98,805.47 694.22,757.29" fill="#1C3D75"/>
<polygon points="694.22,757.29 647.59,723.91 624.71,738.70 671.34,772.09" fill="#1C3D75"/>
<polygon points="318.50,295.75 367.77,260.98 217.83,277.60 168.56,312.37" fill="#1C3D75"/>
<polygon points="717.98,805.47 755.72,769.49 708.20,673.13 670.46,709.11" fill="#1C3D75"/>
<polygon points="708.20,673.13 717.98,805.47 758.13,742.11 748.35,609.78" fill="#1C3D75"/>
<polygon points="403.35,132.87 232.65,236.62 425.85,236.37 596.55,132.62" fill="#1C3D75"/>
<polygon points="337.86,157.28 360.35,260.79 425.85,236.37 403.35,132.86" fill="#1C3D75"/>
<polygon points="272.24,196.22 213.89,249.01 279.50,210.08 337.86,157.28" fill="#1C3D75"/>
<polygon points="213.89,249.01 168.56,312.37 292.53,220.64 337.86,157.28" fill="#1C3D75"/>
<polygon points="367.77,260.98 425.85,236.37 226.63,287.76 168.56,312.37" fill="#1C3D75"/>
<polygon points="425.85,236.37 595.15,81.28 337.86,157.28 168.56,312.37" fill="#1C3D75"/>
<polygon points="540.24,143.58 425.85,236.37 482.16,225.41 596.55,132.62" fill="#1C3D75"/>
<polygon points="482.16,225.41 554.31,230.69 596.55,132.62 524.40,127.34" fill="#1C3D75"/>
<polygon points="880.61,468.99 855.97,400.36 851.73,415.28 876.36,483.91" fill="#1C3D75"/>
<polygon points="608.87,247.73 651.10,149.66 596.55,132.62 554.31,230.69" fill="#1C3D75"/>
<polygon points="853.13,374.84 851.39,370.44 852.49,391.56 854.23,395.96" fill="#1C3D75"/>
<polygon points="851.39,370.44 854.23,395.96 853.13,374.84 850.29,349.32" fill="#1C3D75"/>
<polygon points="853.13,374.84 851.39,370.44 854.23,395.96 855.97,400.36" fill="#1C3D75"/>
<polygon points="830.96,310.61 622.97,225.78 642.31,264.50 850.29,349.32" fill="#1C3D75"/>
<polygon points="780.35,241.97 749.66,213.04 800.26,281.67 830.96,310.61" fill="#1C3D75"/>
<polygon points="749.66,213.04 698.62,176.51 779.93,274.08 830.96,310.61" fill="#1C3D75"/>
<polygon points="698.62,176.51 645.83,150.14 778.17,284.24 830.96,310.61" fill="#1C3D75"/>
<polygon points="645.83,150.13 596.55,132.62 781.69,293.09 830.96,310.61" fill="#1C3D75"/>
<polygon points="642.31,264.50 830.96,310.61 797.53,293.84 608.87,247.73" fill="#1C3D75"/>
<polygon points="713.76,221.61 602.71,190.17 719.92,279.17 830.96,310.61" fill="#1C3D75"/>
<polygon points="713.76,221.61 602.71,190.18 608.87,247.73 719.92,279.17" fill="#1C3D75"/>
<polygon points="602.71,190.17 719.92,279.17 713.76,221.61 596.55,132.62" fill="#1C3D75"/>
<polygon points="850.29,349.32 837.21,338.05 839.41,380.29 852.49,391.56" fill="#1C3D75"/>
<polygon points="656.38,458.78 613.09,481.31 669.40,469.19 712.70,446.66" fill="#6D9A57"/>
<polygon points="638.79,513.74 644.15,520.03 618.45,487.59 613.09,481.31" fill="#6D9A57"/>
<polygon points="644.15,520.03 653.72,525.31 622.65,486.59 613.09,481.31" fill="#6D9A57"/>
<polygon points="633.40,503.31 683.21,485.98 712.70,446.66 662.89,463.99" fill="#6D9A57"/>
<polygon points="662.89,463.99 633.40,503.31 653.72,525.31 683.21,485.98" fill="#6D9A57"/>
<polygon points="683.21,485.98 662.89,463.99 613.09,481.31 633.40,503.31" fill="#6D9A57"/>
<polygon points="643.30,534.11 639.62,541.15 650.03,532.35 653.72,525.31" fill="#6D9A57"/>
<polygon points="661.66,668.36 653.72,525.31 639.62,541.15 647.57,684.19" fill="#6D9A57"/>
<polygon points="441.69,615.91 454.00,613.61 431.13,610.86 418.81,613.16" fill="#6D9A57"/>
<polygon points="482.12,574.58 480.60,571.06 452.48,610.09 454.00,613.61" fill="#6D9A57"/>
<polygon points="418.81,613.17 454.00,613.61 480.60,571.06 445.40,570.62" fill="#6D9A57"/>
<polygon points="410.01,617.73 394.24,601.90 301.88,662.58 317.65,678.41" fill="#6D9A57"/>
<polygon points="410.01,617.74 480.60,571.06 372.47,615.90 301.88,662.57" fill="#6D9A57"/>
<polygon points="475.12,568.98 438.17,563.46 443.64,565.54 480.60,571.06" fill="#6D9A57"/>
<polygon points="438.17,563.46 302.66,628.68 345.09,636.28 480.60,571.06" fill="#6D9A57"/>
<polygon points="294.35,636.18 293.01,643.22 301.32,635.72 302.66,628.68" fill="#6D9A57"/>
<polygon points="293.01,643.22 295.40,652.01 305.05,637.48 302.66,628.68" fill="#6D9A57"/>
<polygon points="295.40,652.02 301.88,662.57 309.14,639.24 302.66,628.68" fill="#6D9A57"/>
<polygon points="391.63,599.87 302.27,645.63 391.24,616.82 480.60,571.06" fill="#6D9A57"/>
<polygon points="391.24,616.82 391.63,599.87 302.27,645.63 301.88,662.57" fill="#6D9A57"/>
<polygon points="391.24,616.82 391.63,599.87 302.66,628.68 302.27,645.63" fill="#6D9A57"/>
<polygon points="401.21,669.94 380.09,677.10 502.66,664.46 523.78,657.29" fill="#6D9A57"/>
<polygon points="523.78,657.29 514.21,666.44 512.08,678.76 521.64,669.61" fill="#6D9A57"/>
<polygon points="512.08,678.76 523.78,657.29 380.09,677.10 368.39,698.57" fill="#6D9A57"/>
<polygon points="540.24,678.63 552.56,681.31 548.16,677.58 535.84,674.89" fill="#6D9A57"/>
<polygon points="539.36,668.00 531.00,664.79 544.20,678.10 552.55,681.31" fill="#6D9A57"/>
<polygon points="539.36,668.00 531.00,664.79 535.84,674.89 544.20,678.10" fill="#6D9A57"/>
<polygon points="531.00,664.79 544.20,678.10 539.36,668.00 526.16,654.69" fill="#6D9A57"/>
<polygon points="542.00,687.70 534.96,693.40 545.52,691.78 552.56,686.07" fill="#6D9A57"/>
<polygon points="529.35,703.05 528.35,711.85 533.96,702.20 534.96,693.40" fill="#6D9A57"/>
<polygon points="552.56,686.07 534.96,693.40 528.35,711.85 545.95,704.52" fill="#6D9A57"/>
<polygon points="448.73,742.49 524.34,711.85 499.71,706.17 424.09,736.81" fill="#6D9A57"/>
<polygon points="524.34,711.85 522.94,699.53 422.69,724.49 424.09,736.81" fill="#6D9A57"/>
<polygon points="519.87,694.25 421.01,731.53 424.09,736.81 522.95,699.53" fill="#6D9A57"/>
<polygon points="500.84,683.69 405.06,726.25 424.09,736.81 519.87,694.25" fill="#6D9A57"/>
<polygon points="337.86,694.60 383.61,721.10 363.41,704.92 317.65,678.41" fill="#6D9A57"/>
<polygon points="383.61,721.11 424.09,736.81 358.13,694.12 317.65,678.41" fill="#6D9A57"/>
<polygon points="409.24,681.05 370.87,707.61 462.46,710.25 500.84,683.69" fill="#6D9A57"/>
<polygon points="409.25,681.05 370.87,707.61 424.09,736.81 462.46,710.25" fill="#6D9A57"/>
<polygon points="370.87,707.61 462.46,710.25 409.25,681.05 317.65,678.41" fill="#6D9A57"/>
<polygon points="672.68,650.25 679.59,630.90 668.57,649.00 661.66,668.36" fill="#6D9A57"/>
<polygon points="687.03,590.42 687.34,578.10 679.89,618.58 679.59,630.90" fill="#6D9A57"/>
<polygon points="669.41,615.56 661.66,668.36 679.59,630.90 687.33,578.10" fill="#6D9A57"/>
<polygon points="725.37,509.47 739.42,479.55 723.23,498.41 709.18,528.32" fill="#6D9A57"/>
<polygon points="741.71,451.39 737.34,440.11 735.04,468.27 739.42,479.55" fill="#6D9A57"/>
<polygon points="707.10,488.88 709.18,528.32 739.42,479.55 737.34,440.11" fill="#6D9A57"/>
<polygon points="693.34,435.10 686.30,433.52 705.66,445.08 712.70,446.66" fill="#6D9A57"/>
<polygon points="666.94,443.59 656.39,458.78 675.74,448.71 686.30,433.52" fill="#6D9A57"/>
<polygon points="712.70,446.66 686.30,433.52 656.39,458.78 682.78,471.92" fill="#6D9A57"/>
<polygon points="546.92,509.47 586.77,555.22 582.93,548.19 543.07,502.43" fill="#6D9A57"/>
<polygon points="613.09,481.31 561.07,522.79 586.77,555.22 638.79,513.75" fill="#6D9A57"/>
<polygon points="566.63,485.86 545.52,496.41 591.97,491.85 613.09,481.31" fill="#6D9A57"/>
<polygon points="545.52,496.41 543.07,502.43 610.64,487.33 613.09,481.31" fill="#6D9A57"/>
<polygon points="578.08,491.87 564.92,528.83 586.77,555.22 599.93,518.27" fill="#6D9A57"/>
<polygon points="599.93,518.27 578.08,491.87 543.07,502.43 564.92,528.83" fill="#6D9A57"/>
<polygon points="564.92,528.83 599.93,518.27 613.09,481.31 578.08,491.87" fill="#6D9A57"/>
<polygon points="593.32,567.54 630.85,537.63 624.30,525.31 586.77,555.22" fill="#6D9A57"/>
<polygon points="633.43,532.35 624.30,525.31 630.48,534.11 639.62,541.15" fill="#6D9A57"/>
<polygon points="639.62,541.15 624.30,525.31 593.32,567.54 608.64,583.38" fill="#6D9A57"/>
<polygon points="414.41,615.45 449.70,592.11 445.31,594.40 410.01,617.74" fill="#6D9A57"/>
<polygon points="445.30,594.40 414.41,615.45 449.70,592.11 480.60,571.06" fill="#6D9A57"/>
<polygon points="445.31,594.40 414.41,615.45 418.81,613.17 449.70,592.11" fill="#6D9A57"/>
<polygon points="586.77,588.66 526.16,654.69 579.00,607.17 639.62,541.15" fill="#6D9A57"/>
<polygon points="552.55,681.31 555.16,683.69 528.76,657.07 526.16,654.69" fill="#6D9A57"/>
<polygon points="555.16,683.69 661.66,668.36 632.66,639.35 526.16,654.69" fill="#6D9A57"/>
<polygon points="593.91,661.52 650.64,604.75 639.62,541.15 582.89,597.92" fill="#6D9A57"/>
<polygon points="582.89,597.92 593.91,661.52 661.66,668.36 650.64,604.75" fill="#6D9A57"/>
<polygon points="650.64,604.75 582.89,597.92 526.16,654.69 593.91,661.52" fill="#6D9A57"/>
<polygon points="552.56,686.07 528.35,711.85 530.96,709.47 555.16,683.69" fill="#6D9A57"/>
<polygon points="634.85,696.51 661.66,668.36 555.16,683.69 528.35,711.85" fill="#6D9A57"/>
<polygon points="730.30,438.77 702.14,526.99 709.18,528.32 737.34,440.11" fill="#6D9A57"/>
<polygon points="709.18,528.32 730.30,438.77 717.65,460.39 696.53,549.95" fill="#6D9A57"/>
<polygon points="696.53,549.94 730.30,438.77 712.70,446.66 678.93,557.83" fill="#6D9A57"/>
<polygon points="593.32,567.54 586.77,588.66 633.07,562.26 639.62,541.15" fill="#6D9A57"/>
<polygon points="526.35,711.85 486.54,727.17 488.54,727.17 528.35,711.85" fill="#6D9A57"/>
<polygon points="488.54,727.17 526.35,711.85 486.54,727.17 448.73,742.49" fill="#6D9A57"/>
<polygon points="488.54,727.17 526.35,711.85 524.35,711.85 486.54,727.17" fill="#6D9A57"/>
<polygon points="317.65,678.41 384.91,660.81 410.01,617.74 342.74,635.34" fill="#6D9A57"/>
<polygon points="466.32,744.38 545.95,713.74 528.35,711.85 448.73,742.49" fill="#6D9A57"/>
<polygon points="513.84,743.85 575.87,711.32 528.35,711.85 466.32,744.38" fill="#6D9A57"/>
<polygon points="554.31,735.07 568.83,703.07 528.35,711.85 513.84,743.85" fill="#6D9A57"/>
<polygon points="575.43,728.02 608.87,712.31 587.75,719.36 554.31,735.07" fill="#6D9A57"/>
<polygon points="608.87,712.31 626.47,701.65 571.91,724.41 554.31,735.07" fill="#6D9A57"/>
<polygon points="626.47,701.65 645.83,686.23 573.67,719.66 554.32,735.07" fill="#6D9A57"/>
<polygon points="645.83,686.23 661.66,668.36 570.15,717.20 554.31,735.07" fill="#6D9A57"/>
<polygon points="635.70,645.13 528.35,711.85 554.31,735.07 661.66,668.36" fill="#6D9A57"/>
<polygon points="691.93,564.02 704.62,498.30 700.02,512.38 687.34,578.10" fill="#6D9A57"/>
<polygon points="700.02,512.38 691.93,564.02 704.62,498.30 712.70,446.66" fill="#6D9A57"/>
<polygon points="700.02,512.38 691.93,564.02 696.53,549.95 704.62,498.30" fill="#6D9A57"/>
<polygon points="323.68,666.09 317.65,678.41 378.88,673.13 384.91,660.81" fill="#6D9A57"/>
<polygon points="687.34,578.10 712.70,446.66 687.03,536.92 661.66,668.36" fill="#6D9A57"/>
<polygon points="683.21,485.98 657.69,596.83 687.18,557.51 712.70,446.66" fill="#6D9A57"/>
<polygon points="687.18,557.51 683.21,485.98 657.69,596.83 661.66,668.36" fill="#6D9A57"/>
<polygon points="687.18,557.51 683.21,485.98 653.72,525.31 657.69,596.83" fill="#6D9A57"/>
<polygon points="317.65,678.41 380.09,677.10 378.88,673.13 316.44,674.44" fill="#6D9A57"/>
<polygon points="380.09,677.10 317.65,678.41 449.64,680.07 512.08,678.76" fill="#6D9A57"/>
<polygon points="409.24,681.05 506.46,681.23 414.86,678.59 317.65,678.41" fill="#6D9A57"/>
<polygon points="414.86,678.59 409.24,681.05 506.46,681.23 512.08,678.76" fill="#6D9A57"/>
<polygon points="414.86,678.59 409.24,681.05 500.84,683.69 506.46,681.22" fill="#6D9A57"/>
<polygon points="546.30,643.80 586.77,588.66 566.63,599.55 526.16,654.69" fill="#6D9A57"/>
<polygon points="566.63,599.55 401.21,669.94 415.44,703.39 580.87,633.00" fill="#6D9A57"/>
<polygon points="323.31,366.92 323.78,364.82 274.75,371.86 274.28,373.96" fill="#6D9A57"/>
<polygon points="350.18,349.65 358.13,358.12 356.46,349.00 348.51,340.52" fill="#6D9A57"/>
<polygon points="373.25,365.16 363.63,347.56 348.51,340.53 358.13,358.12" fill="#6D9A57"/>
<polygon points="517.36,279.66 348.51,340.52 373.25,365.16 542.09,304.30" fill="#6D9A57"/>
<polygon points="360.73,370.25 353.69,376.64 366.01,373.41 373.05,367.02" fill="#6D9A57"/>
<polygon points="360.78,379.29 363.37,371.83 353.69,376.64 351.10,384.10" fill="#6D9A57"/>
<polygon points="363.37,371.83 351.10,384.10 360.78,379.29 373.05,367.02" fill="#6D9A57"/>
<polygon points="360.78,379.29 363.37,371.83 351.10,384.10 348.50,391.56" fill="#6D9A57"/>
<polygon points="346.57,391.56 345.36,384.52 294.41,430.06 295.62,437.09" fill="#6D9A57"/>
<polygon points="323.31,366.92 330.81,378.23 345.36,384.52 337.86,373.21" fill="#6D9A57"/>
<polygon points="323.31,366.92 274.28,373.96 296.33,391.56 345.36,384.52" fill="#6D9A57"/>
<polygon points="320.49,410.81 309.82,379.24 274.28,373.96 284.95,405.53" fill="#6D9A57"/>
<polygon points="284.95,405.53 320.49,410.81 345.36,384.52 309.82,379.24" fill="#6D9A57"/>
<polygon points="309.82,379.24 284.95,405.53 295.62,437.09 320.49,410.81" fill="#6D9A57"/>
<polygon points="309.70,442.29 295.62,468.75 309.70,467.73 323.78,441.27" fill="#6D9A57"/>
<polygon points="299.14,447.65 299.14,473.09 309.70,467.73 309.70,442.29" fill="#6D9A57"/>
<polygon points="278.29,467.23 253.38,504.56 274.24,484.98 299.14,447.65" fill="#6D9A57"/>
<polygon points="281.54,486.14 304.42,457.69 276.26,476.10 253.38,504.56" fill="#6D9A57"/>
<polygon points="276.26,476.10 281.54,486.14 304.42,457.69 299.14,447.65" fill="#6D9A57"/>
<polygon points="276.26,476.10 281.54,486.14 309.70,467.73 304.42,457.69" fill="#6D9A57"/>
<polygon points="253.38,504.56 278.29,467.23 273.01,469.70 248.10,507.02" fill="#6D9A57"/>
<polygon points="278.29,467.23 277.82,461.95 247.63,501.74 248.10,507.02" fill="#6D9A57"/>
<polygon points="244.60,505.95 248.10,507.02 249.12,459.50 245.62,458.43" fill="#6D9A57"/>
<polygon points="246.86,482.73 262.96,484.49 277.82,461.95 261.72,460.19" fill="#6D9A57"/>
<polygon points="261.72,460.19 246.86,482.73 248.10,507.02 262.96,484.49" fill="#6D9A57"/>
<polygon points="262.96,484.49 261.72,460.19 245.62,458.43 246.86,482.73" fill="#6D9A57"/>
<polygon points="251.62,512.62 232.33,525.31 290.41,494.35 309.70,481.66" fill="#6D9A57"/>
<polygon points="235.36,539.39 237.55,539.84 234.52,525.76 232.33,525.31" fill="#6D9A57"/>
<polygon points="273.62,510.75 271.02,503.49 234.94,532.57 237.55,539.84" fill="#6D9A57"/>
<polygon points="273.62,510.75 271.02,503.49 232.33,525.31 234.94,532.57" fill="#6D9A57"/>
<polygon points="271.02,503.49 234.94,532.57 273.62,510.75 309.70,481.67" fill="#6D9A57"/>
<polygon points="280.66,528.09 278.00,538.57 308.80,525.39 311.46,514.91" fill="#6D9A57"/>
<polygon points="280.66,528.09 278.00,538.57 306.14,535.87 308.80,525.39" fill="#6D9A57"/>
<polygon points="278.00,538.57 308.80,525.39 280.66,528.09 249.86,541.27" fill="#6D9A57"/>
<polygon points="311.46,514.91 306.14,535.87 307.58,530.43 312.90,509.47" fill="#6D9A57"/>
<polygon points="348.41,514.53 325.50,517.83 306.14,535.87 329.06,532.57" fill="#6D9A57"/>
<polygon points="327.28,525.20 330.66,512.00 312.90,509.47 309.52,522.67" fill="#6D9A57"/>
<polygon points="330.66,512.00 309.52,522.67 327.28,525.20 348.42,514.53" fill="#6D9A57"/>
<polygon points="327.28,525.20 330.66,512.00 309.52,522.67 306.14,535.87" fill="#6D9A57"/>
<polygon points="306.14,535.87 249.86,541.27 251.48,544.79 307.75,539.39" fill="#6D9A57"/>
<polygon points="267.46,578.60 263.21,576.71 257.93,581.62 262.18,583.51" fill="#6D9A57"/>
<polygon points="267.46,578.60 277.27,562.26 267.74,565.29 257.93,581.62" fill="#6D9A57"/>
<polygon points="248.47,544.67 251.30,562.26 252.70,558.87 249.86,541.27" fill="#6D9A57"/>
<polygon points="257.93,581.62 256.49,560.63 249.86,541.27 251.30,562.26" fill="#6D9A57"/>
<polygon points="253.90,561.45 267.60,571.94 277.27,562.26 263.57,551.77" fill="#6D9A57"/>
<polygon points="263.57,551.77 253.90,561.45 257.93,581.62 267.60,571.94" fill="#6D9A57"/>
<polygon points="267.60,571.94 263.57,551.77 249.86,541.27 253.90,561.45" fill="#6D9A57"/>
<polygon points="503.28,380.28 480.40,388.77 496.24,388.06 519.12,379.56" fill="#6D9A57"/>
<polygon points="494.16,401.71 519.12,379.56 480.40,388.77 455.44,410.92" fill="#6D9A57"/>
<polygon points="456.84,389.80 452.24,392.92 475.81,391.89 480.40,388.77" fill="#6D9A57"/>
<polygon points="449.78,398.60 455.44,410.92 457.90,405.24 452.25,392.92" fill="#6D9A57"/>
<polygon points="480.40,388.77 452.25,392.92 455.44,410.92 483.60,406.77" fill="#6D9A57"/>
<polygon points="441.69,408.46 436.26,410.92 449.08,415.14 454.50,412.68" fill="#6D9A57"/>
<polygon points="428.64,472.51 429.18,486.59 436.80,425.00 436.26,410.92" fill="#6D9A57"/>
<polygon points="454.50,412.68 436.26,410.92 429.18,486.59 447.41,488.35" fill="#6D9A57"/>
<polygon points="471.14,490.70 470.15,476.03 467.09,481.90 468.08,496.56" fill="#6D9A57"/>
<polygon points="467.09,481.90 471.14,490.70 470.15,476.03 466.10,467.23" fill="#6D9A57"/>
<polygon points="467.09,481.90 471.14,490.70 474.19,484.83 470.15,476.03" fill="#6D9A57"/>
<polygon points="512.08,430.98 593.03,415.36 571.91,412.74 490.96,428.36" fill="#6D9A57"/>
<polygon points="580.47,408.74 529.44,415.24 542.00,421.86 593.03,415.36" fill="#6D9A57"/>
<polygon points="542.00,421.86 580.47,408.74 529.44,415.24 490.96,428.36" fill="#6D9A57"/>
<polygon points="542.00,421.86 580.47,408.74 567.91,402.12 529.44,415.24" fill="#6D9A57"/>
<polygon points="595.72,435.56 598.31,440.98 599.73,423.38 597.14,417.96" fill="#6D9A57"/>
<polygon points="631.75,441.55 637.74,435.56 604.30,434.99 598.31,440.98" fill="#6D9A57"/>
<polygon points="597.73,429.47 618.03,438.27 637.74,435.56 617.44,426.76" fill="#6D9A57"/>
<polygon points="617.44,426.76 597.73,429.47 598.31,440.98 618.02,438.27" fill="#6D9A57"/>
<polygon points="618.02,438.27 617.44,426.76 597.14,417.96 597.73,429.47" fill="#6D9A57"/>
<polygon points="632.07,405.64 626.47,393.18 632.13,423.10 637.74,435.56" fill="#6D9A57"/>
<polygon points="596.55,392.59 571.91,403.33 601.83,403.91 626.47,393.18" fill="#6D9A57"/>
<polygon points="604.83,419.44 632.10,414.37 599.19,398.25 571.91,403.33" fill="#6D9A57"/>
<polygon points="604.83,419.44 632.10,414.37 626.47,393.18 599.19,398.25" fill="#6D9A57"/>
<polygon points="632.10,414.37 599.19,398.25 604.83,419.44 637.74,435.56" fill="#6D9A57"/>
<polygon points="597.24,379.24 601.94,375.72 583.66,376.75 578.95,380.27" fill="#6D9A57"/>
<polygon points="600.27,370.44 577.28,375.00 578.95,380.27 601.94,375.72" fill="#6D9A57"/>
<polygon points="561.35,374.55 589.61,375.36 572.01,369.63 543.76,368.82" fill="#6D9A57"/>
<polygon points="572.02,369.63 561.35,374.55 589.61,375.36 600.27,370.44" fill="#6D9A57"/>
<polygon points="572.01,369.63 561.35,374.55 578.95,380.27 589.61,375.36" fill="#6D9A57"/>
<polygon points="529.68,336.70 509.09,329.97 516.89,335.55 537.48,342.28" fill="#6D9A57"/>
<polygon points="525.19,347.56 539.38,353.72 523.28,336.13 509.09,329.97" fill="#6D9A57"/>
<polygon points="525.19,347.56 539.38,353.72 537.48,342.28 523.28,336.13" fill="#6D9A57"/>
<polygon points="539.38,353.72 523.28,336.13 525.19,347.56 541.29,365.16" fill="#6D9A57"/>
<polygon points="638.79,323.03 637.98,328.21 648.28,321.06 649.09,315.89" fill="#6D9A57"/>
<polygon points="649.09,315.89 637.98,328.21 658.14,329.24 669.26,316.92" fill="#6D9A57"/>
<polygon points="682.78,369.38 680.60,374.66 714.76,375.72 716.94,370.44" fill="#6D9A57"/>
<polygon points="682.78,369.38 640.55,370.14 672.52,376.47 714.76,375.72" fill="#6D9A57"/>
<polygon points="634.15,379.24 640.91,375.42 640.55,370.14 633.79,373.96" fill="#6D9A57"/>
<polygon points="647.59,381.86 653.99,372.75 640.55,370.14 634.15,379.24" fill="#6D9A57"/>
<polygon points="691.58,381.88 710.94,378.34 666.94,378.32 647.59,381.86" fill="#6D9A57"/>
<polygon points="710.94,378.34 714.76,375.72 651.41,379.24 647.59,381.86" fill="#6D9A57"/>
<polygon points="644.07,376.00 681.17,378.79 677.65,372.93 640.55,370.14" fill="#6D9A57"/>
<polygon points="677.65,372.93 644.07,376.00 681.17,378.79 714.76,375.72" fill="#6D9A57"/>
<polygon points="677.65,372.93 644.07,376.00 647.59,381.86 681.17,378.79" fill="#6D9A57"/>
<polygon points="571.91,260.61 538.48,273.98 556.07,272.09 589.51,258.72" fill="#6D9A57"/>
<polygon points="637.03,274.95 601.83,260.60 631.75,279.63 666.94,293.99" fill="#6D9A57"/>
<polygon points="589.51,258.72 538.48,273.98 550.79,275.87 601.83,260.60" fill="#6D9A57"/>
<polygon points="602.71,283.98 634.39,277.30 570.15,267.29 538.48,273.98" fill="#6D9A57"/>
<polygon points="602.71,283.98 634.39,277.29 601.83,260.60 570.15,267.29" fill="#6D9A57"/>
<polygon points="634.39,277.30 570.15,267.29 602.71,283.98 666.94,293.99" fill="#6D9A57"/>
<polygon points="450.48,269.41 418.81,269.25 462.80,279.51 494.48,279.66" fill="#6D9A57"/>
<polygon points="395.93,273.33 374.81,280.47 397.69,276.40 418.81,269.25" fill="#6D9A57"/>
<polygon points="450.49,290.87 494.48,279.66 418.81,269.25 374.81,280.47" fill="#6D9A57"/>
<polygon points="323.78,364.82 347.86,331.39 298.36,340.52 274.28,373.96" fill="#6D9A57"/>
<polygon points="338.64,356.36 313.22,332.06 298.36,340.53 323.78,364.82" fill="#6D9A57"/>
<polygon points="346.65,340.33 374.81,280.47 366.79,296.50 338.64,356.36" fill="#6D9A57"/>
<polygon points="350.17,294.42 329.06,309.83 353.69,295.88 374.81,280.47" fill="#6D9A57"/>
<polygon points="329.06,309.83 298.36,340.53 344.11,311.17 374.81,280.47" fill="#6D9A57"/>
<polygon points="336.59,310.50 318.50,348.44 338.64,356.36 356.72,318.42" fill="#6D9A57"/>
<polygon points="318.50,348.44 356.72,318.42 336.58,310.50 298.36,340.53" fill="#6D9A57"/>
<polygon points="336.58,310.50 318.50,348.44 356.72,318.42 374.81,280.47" fill="#6D9A57"/>
<polygon points="307.75,539.39 249.86,541.27 257.09,543.75 314.98,541.87" fill="#6D9A57"/>
<polygon points="266.58,549.86 299.14,550.15 282.42,541.57 249.86,541.27" fill="#6D9A57"/>
<polygon points="282.42,541.57 266.58,549.86 299.14,550.15 314.98,541.87" fill="#6D9A57"/>
<polygon points="282.42,541.57 266.58,549.86 283.30,558.44 299.14,550.15" fill="#6D9A57"/>
<polygon points="465.23,460.19 455.44,410.92 456.31,417.96 466.10,467.23" fill="#6D9A57"/>
<polygon points="454.50,412.68 465.16,468.99 466.10,467.23 455.44,410.92" fill="#6D9A57"/>
<polygon points="436.41,493.85 454.00,499.64 446.77,492.38 429.18,486.59" fill="#6D9A57"/>
<polygon points="454.00,499.64 462.80,499.75 437.98,486.71 429.18,486.59" fill="#6D9A57"/>
<polygon points="462.80,499.75 468.08,496.56 434.46,483.40 429.18,486.59" fill="#6D9A57"/>
<polygon points="466.10,467.23 454.50,412.68 456.48,442.01 468.08,496.56" fill="#6D9A57"/>
<polygon points="448.63,491.58 461.29,454.62 454.50,412.68 441.84,449.63" fill="#6D9A57"/>
<polygon points="441.84,449.63 448.63,491.58 468.08,496.56 461.29,454.62" fill="#6D9A57"/>
<polygon points="461.29,454.62 441.84,449.63 429.18,486.59 448.63,491.58" fill="#6D9A57"/>
<polygon points="256.57,414.44 245.62,458.43 263.32,417.96 274.28,373.96" fill="#6D9A57"/>
<polygon points="284.71,447.87 252.51,444.35 245.62,458.43 277.82,461.95" fill="#6D9A57"/>
<polygon points="284.71,447.88 313.37,363.40 274.28,373.96 245.62,458.43" fill="#6D9A57"/>
<polygon points="309.70,481.67 237.55,539.84 242.82,535.89 314.98,477.71" fill="#6D9A57"/>
<polygon points="270.10,523.15 308.82,492.08 276.26,508.78 237.55,539.84" fill="#6D9A57"/>
<polygon points="276.26,508.78 270.10,523.15 308.82,492.08 314.98,477.71" fill="#6D9A57"/>
<polygon points="276.26,508.78 270.10,523.15 302.66,506.46 308.82,492.08" fill="#6D9A57"/>
<polygon points="597.14,417.96 637.74,435.56 633.63,432.96 593.03,415.36" fill="#6D9A57"/>
<polygon points="593.03,415.36 597.03,416.57 571.91,403.33 567.91,402.12" fill="#6D9A57"/>
<polygon points="616.62,423.52 571.91,403.33 593.03,415.36 637.74,435.56" fill="#6D9A57"/>
<polygon points="543.76,368.82 537.24,371.31 572.43,382.76 578.95,380.27" fill="#6D9A57"/>
<polygon points="509.09,329.97 543.76,368.82 541.29,365.16 506.62,326.30" fill="#6D9A57"/>
<polygon points="649.09,315.89 658.14,329.24 659.12,323.96 650.07,310.61" fill="#6D9A57"/>
<polygon points="658.51,321.89 654.11,319.92 658.14,329.24 662.54,331.21" fill="#6D9A57"/>
<polygon points="654.11,319.92 662.54,331.21 658.51,321.89 650.07,310.61" fill="#6D9A57"/>
<polygon points="658.51,321.89 654.11,319.92 662.54,331.21 666.94,333.18" fill="#6D9A57"/>
<polygon points="295.62,437.09 285.19,363.18 274.28,373.96 284.71,447.87" fill="#6D9A57"/>
<polygon points="263.57,551.77 280.29,560.35 266.58,549.86 249.86,541.27" fill="#6D9A57"/>
<polygon points="266.58,549.86 263.57,551.77 280.29,560.35 283.30,558.44" fill="#6D9A57"/>
<polygon points="266.58,549.86 263.57,551.77 277.27,562.26 280.29,560.35" fill="#6D9A57"/>
<polygon points="490.96,428.36 524.42,377.48 498.69,409.32 465.23,460.19" fill="#6D9A57"/>
<polygon points="519.12,379.56 455.44,410.92 460.75,408.84 524.42,377.48" fill="#6D9A57"/>
<polygon points="494.83,418.84 489.93,394.20 460.34,435.56 465.23,460.19" fill="#6D9A57"/>
<polygon points="494.83,418.84 489.93,394.20 455.44,410.92 460.34,435.56" fill="#6D9A57"/>
<polygon points="489.93,394.20 460.34,435.56 494.83,418.84 524.42,377.48" fill="#6D9A57"/>
<polygon points="543.76,368.82 539.23,388.18 567.91,402.12 572.43,382.76" fill="#6D9A57"/>
<polygon points="713.34,374.66 716.94,370.44 686.38,365.16 682.78,369.38" fill="#6D9A57"/>
<polygon points="631.75,290.69 666.94,293.99 552.55,282.96 517.36,279.66" fill="#6D9A57"/>
<polygon points="592.15,286.82 602.71,283.98 527.92,276.82 517.36,279.66" fill="#6D9A57"/>
<polygon points="592.15,286.82 602.71,283.98 538.48,273.98 527.92,276.82" fill="#6D9A57"/>
<polygon points="602.71,283.98 527.92,276.82 592.15,286.82 666.94,293.99" fill="#6D9A57"/>
<polygon points="323.78,441.27 309.70,467.73 311.10,465.53 325.18,439.08" fill="#6D9A57"/>
<polygon points="325.18,439.08 309.70,467.73 314.17,467.23 329.65,438.58" fill="#6D9A57"/>
<polygon points="306.18,505.84 318.50,477.09 314.98,477.71 302.66,506.46" fill="#6D9A57"/>
<polygon points="543.76,368.82 509.09,329.97 533.25,363.26 567.91,402.12" fill="#6D9A57"/>
<polygon points="522.83,358.12 567.91,402.12 509.09,329.97 464.00,285.97" fill="#6D9A57"/>
<polygon points="716.95,358.12 666.94,320.86 666.94,333.18 716.95,370.44" fill="#6D9A57"/>
<polygon points="713.16,349.32 663.16,324.38 666.94,333.18 716.95,358.12" fill="#6D9A57"/>
<polygon points="690.61,315.89 666.94,293.99 689.50,327.42 713.16,349.32" fill="#6D9A57"/>
<polygon points="650.07,310.61 672.16,304.55 666.94,293.99 644.85,300.05" fill="#6D9A57"/>
<polygon points="666.94,333.18 683.82,316.56 666.94,293.99 650.07,310.61" fill="#6D9A57"/>
<polygon points="690.05,321.66 666.94,313.58 690.05,341.25 713.16,349.32" fill="#6D9A57"/>
<polygon points="690.05,321.65 666.94,313.58 666.94,333.18 690.05,341.25" fill="#6D9A57"/>
<polygon points="666.94,313.58 690.05,341.25 690.05,321.65 666.94,293.99" fill="#6D9A57"/>
<polygon points="716.94,370.44 697.50,338.46 666.94,333.18 686.38,365.16" fill="#6D9A57"/>
<polygon points="494.48,279.66 374.81,280.47 397.69,280.47 517.36,279.66" fill="#6D9A57"/>
<polygon points="348.51,340.53 376.67,280.66 374.81,280.47 346.66,340.33" fill="#6D9A57"/>
<polygon points="348.51,340.53 491.06,339.71 517.36,279.66 374.81,280.47" fill="#6D9A57"/>
<polygon points="312.90,509.47 321.70,481.34 314.98,477.71 306.18,505.84" fill="#6D9A57"/>
<polygon points="348.41,514.53 351.93,514.29 316.42,509.22 312.90,509.47" fill="#6D9A57"/>
<polygon points="314.98,477.71 312.90,509.47 314.79,504.27 316.87,472.51" fill="#6D9A57"/>
<polygon points="334.40,493.40 314.88,490.99 312.90,509.47 332.42,511.88" fill="#6D9A57"/>
<polygon points="314.88,490.99 332.42,511.88 334.40,493.40 316.87,472.51" fill="#6D9A57"/>
<polygon points="334.40,493.40 314.88,490.99 332.42,511.88 351.93,514.29" fill="#6D9A57"/>
<polygon points="334.34,557.84 343.13,553.82 292.10,554.42 283.30,558.44" fill="#6D9A57"/>
<polygon points="314.98,541.87 324.85,554.54 343.13,553.82 333.27,541.15" fill="#6D9A57"/>
<polygon points="313.22,556.13 329.06,547.84 299.14,550.15 283.30,558.44" fill="#6D9A57"/>
<polygon points="313.22,556.13 329.06,547.84 314.98,541.87 299.14,550.15" fill="#6D9A57"/>
<polygon points="329.06,547.85 299.14,550.15 313.22,556.13 343.14,553.82" fill="#6D9A57"/>
<polygon points="346.57,391.56 313.04,434.70 314.98,434.70 348.50,391.56" fill="#6D9A57"/>
<polygon points="321.09,414.33 305.30,435.90 330.77,413.13 346.57,391.56" fill="#6D9A57"/>
<polygon points="321.09,414.33 305.30,435.90 314.98,434.70 330.77,413.13" fill="#6D9A57"/>
<polygon points="305.30,435.90 330.77,413.13 321.09,414.33 295.62,437.09" fill="#6D9A57"/>
<polygon points="529.44,415.24 546.17,389.80 524.42,377.48 507.69,402.92" fill="#6D9A57"/>
<polygon points="546.17,389.80 507.69,402.92 529.44,415.24 567.91,402.12" fill="#6D9A57"/>
<polygon points="529.44,415.24 546.17,389.80 507.69,402.92 490.96,428.36" fill="#6D9A57"/>
<polygon points="373.25,365.16 373.05,367.02 517.16,281.52 517.36,279.66" fill="#6D9A57"/>
<polygon points="340.13,534.99 338.20,547.48 345.07,541.32 347.00,528.83" fill="#6D9A57"/>
<polygon points="345.07,541.32 340.13,534.99 338.20,547.48 343.14,553.82" fill="#6D9A57"/>
<polygon points="345.07,541.32 340.13,534.99 333.27,541.15 338.20,547.48" fill="#6D9A57"/>
<polygon points="567.91,402.12 525.15,370.44 524.42,377.48 567.19,409.16" fill="#6D9A57"/>
<polygon points="666.94,293.99 637.52,293.01 644.85,300.05 674.27,301.03" fill="#6D9A57"/>
<polygon points="393.19,495.39 397.44,488.35 347.38,546.78 343.14,553.82" fill="#6D9A57"/>
<polygon points="395.93,486.13 383.61,485.86 385.12,488.08 397.44,488.35" fill="#6D9A57"/>
<polygon points="383.61,485.86 366.01,489.21 379.84,491.69 397.44,488.35" fill="#6D9A57"/>
<polygon points="351.93,514.29 347.00,528.83 361.08,503.74 366.01,489.21" fill="#6D9A57"/>
<polygon points="347.00,528.83 343.14,553.82 362.15,514.20 366.01,489.21" fill="#6D9A57"/>
<polygon points="370.28,521.09 381.72,488.78 354.57,521.51 343.13,553.82" fill="#6D9A57"/>
<polygon points="370.29,521.09 381.72,488.78 366.01,489.21 354.57,521.51" fill="#6D9A57"/>
<polygon points="381.72,488.78 354.57,521.51 370.29,521.09 397.44,488.35" fill="#6D9A57"/>
<polygon points="567.91,402.12 522.83,358.12 525.15,370.44 570.23,414.44" fill="#6D9A57"/>
<polygon points="666.94,293.99 631.75,290.69 637.52,293.01 672.72,296.31" fill="#6D9A57"/>
<polygon points="366.01,489.21 357.21,488.08 351.93,514.29 360.73,515.42" fill="#6D9A57"/>
<polygon points="514.56,334.20 509.09,329.97 517.36,353.89 522.83,358.12" fill="#6D9A57"/>
<polygon points="517.36,279.66 395.57,315.42 509.96,326.45 631.75,290.69" fill="#6D9A57"/>
<polygon points="357.21,488.08 346.33,458.43 341.05,484.64 351.93,514.29" fill="#6D9A57"/>
<polygon points="314.17,467.23 335.33,486.59 346.33,458.43 325.18,439.08" fill="#6D9A57"/>
<polygon points="316.87,472.51 351.93,514.29 349.24,509.01 314.17,467.23" fill="#6D9A57"/>
<polygon points="333.05,490.76 349.13,486.36 346.33,458.43 330.25,462.83" fill="#6D9A57"/>
<polygon points="330.25,462.83 333.05,490.76 351.93,514.29 349.13,486.36" fill="#6D9A57"/>
<polygon points="349.13,486.36 330.25,462.83 314.17,467.23 333.05,490.76" fill="#6D9A57"/>
<polygon points="509.09,329.97 452.77,328.06 461.04,351.99 517.36,353.89" fill="#6D9A57"/>
<polygon points="509.09,329.97 509.96,326.45 461.91,348.47 461.04,351.99" fill="#6D9A57"/>
<polygon points="461.04,351.99 509.96,326.45 490.60,329.55 441.69,355.09" fill="#6D9A57"/>
<polygon points="441.69,355.09 509.96,326.45 517.36,279.66 449.09,308.30" fill="#6D9A57"/>
<polygon points="344.62,447.87 323.47,428.52 325.18,439.08 346.33,458.43" fill="#6D9A57"/>
<polygon points="352.85,437.31 333.40,428.52 325.18,439.08 344.62,447.87" fill="#6D9A57"/>
<polygon points="441.69,355.09 517.36,279.66 505.95,287.97 430.28,363.40" fill="#6D9A57"/>
<polygon points="348.50,391.56 314.98,434.70 339.53,410.17 373.05,367.02" fill="#6D9A57"/>
<polygon points="325.18,439.08 383.25,371.39 373.05,367.02 314.98,434.70" fill="#6D9A57"/>
<polygon points="352.85,437.32 400.72,365.26 373.05,367.02 325.18,439.08" fill="#6D9A57"/>
<polygon points="430.28,363.40 517.36,279.66 439.93,353.57 352.85,437.32" fill="#6D9A57"/>
<polygon points="445.20,323.34 362.95,402.17 435.10,358.49 517.36,279.66" fill="#6D9A57"/>
<polygon points="435.10,358.49 445.21,323.34 362.95,402.17 352.85,437.32" fill="#6D9A57"/>
<polygon points="435.10,358.49 445.21,323.34 373.05,367.02 362.95,402.17" fill="#6D9A57"/>
<polygon points="475.12,515.51 490.96,517.25 505.04,505.62 489.20,503.88" fill="#6D9A57"/>
<polygon points="563.04,553.46 524.40,519.25 528.69,529.81 567.34,564.02" fill="#6D9A57"/>
<polygon points="524.40,519.25 505.04,505.62 547.98,550.40 567.34,564.02" fill="#6D9A57"/>
<polygon points="537.42,573.91 567.34,564.02 505.04,505.62 475.12,515.51" fill="#6D9A57"/>
<polygon points="443.45,509.14 434.65,508.02 452.24,515.70 461.04,516.81" fill="#6D9A57"/>
<polygon points="432.16,512.99 432.17,520.03 434.66,515.06 434.65,508.02" fill="#6D9A57"/>
<polygon points="461.04,516.81 434.65,508.02 432.17,520.03 458.57,528.82" fill="#6D9A57"/>
<polygon points="526.16,601.23 525.32,598.39 521.80,597.46 522.64,600.30" fill="#6D9A57"/>
<polygon points="526.16,601.23 552.55,589.12 548.20,585.35 521.80,597.46" fill="#6D9A57"/>
<polygon points="552.56,589.12 563.11,582.02 532.36,590.36 521.80,597.46" fill="#6D9A57"/>
<polygon points="563.11,582.02 567.34,564.02 526.03,579.46 521.80,597.46" fill="#6D9A57"/>
<polygon points="546.22,569.30 523.45,586.02 544.57,580.74 567.34,564.02" fill="#6D9A57"/>
<polygon points="544.57,580.74 546.22,569.30 523.45,586.02 521.80,597.46" fill="#6D9A57"/>
<polygon points="544.57,580.74 546.22,569.30 525.10,574.58 523.45,586.02" fill="#6D9A57"/>
<polygon points="439.93,529.17 468.80,525.96 461.04,516.81 432.17,520.03" fill="#6D9A57"/>
<polygon points="461.04,516.81 439.93,529.17 448.73,529.72 469.84,517.36" fill="#6D9A57"/>
<polygon points="469.84,517.36 439.93,529.17 523.37,569.30 553.29,557.49" fill="#6D9A57"/>
<polygon points="524.23,571.94 546.22,569.30 545.35,566.66 523.37,569.30" fill="#6D9A57"/>
<polygon points="545.35,566.66 524.23,571.94 546.22,569.30 567.34,564.02" fill="#6D9A57"/>
<polygon points="545.35,566.66 524.23,571.94 525.10,574.58 546.22,569.30" fill="#6D9A57"/>
<polygon points="567.34,564.02 471.75,513.74 460.04,535.99 555.63,586.27" fill="#6D9A57"/>
<polygon points="710.94,427.06 716.22,427.48 695.10,417.68 689.82,417.26" fill="#6D9A57"/>
<polygon points="731.18,414.02 703.02,422.37 716.22,427.48 744.38,419.13" fill="#6D9A57"/>
<polygon points="703.02,422.37 744.38,419.13 731.18,414.02 689.82,417.26" fill="#6D9A57"/>
<polygon points="731.18,414.02 703.02,422.37 744.38,419.13 772.53,410.78" fill="#6D9A57"/>
<polygon points="834.13,411.66 836.60,402.12 817.24,412.66 814.77,422.20" fill="#6D9A57"/>
<polygon points="832.37,396.08 810.54,416.16 814.77,422.20 836.60,402.12" fill="#6D9A57"/>
<polygon points="802.45,403.43 793.65,416.49 823.57,409.14 832.37,396.08" fill="#6D9A57"/>
<polygon points="802.45,403.43 793.65,416.49 814.77,422.20 823.57,409.14" fill="#6D9A57"/>
<polygon points="793.65,416.49 823.57,409.14 802.45,403.43 772.53,410.78" fill="#6D9A57"/>
<polygon points="654.30,423.24 657.97,428.52 650.98,405.64 647.31,400.36" fill="#6D9A57"/>
<polygon points="657.97,428.52 661.66,428.81 651.01,400.65 647.31,400.36" fill="#6D9A57"/>
<polygon points="647.31,400.36 661.66,428.81 663.70,423.39 649.35,394.94" fill="#6D9A57"/>
<polygon points="669.58,406.10 655.50,411.87 661.66,428.81 675.74,423.03" fill="#6D9A57"/>
<polygon points="675.74,423.03 669.58,406.10 649.35,394.94 655.51,411.87" fill="#6D9A57"/>
<polygon points="655.51,411.87 675.74,423.03 689.82,417.26 669.58,406.10" fill="#6D9A57"/>
<polygon points="827.09,394.23 767.25,408.93 772.53,410.78 832.37,396.08" fill="#6D9A57"/>
<polygon points="772.53,410.78 827.09,394.23 744.38,400.70 689.82,417.26" fill="#6D9A57"/>
<polygon points="738.22,394.58 669.58,406.10 758.46,405.74 827.09,394.22" fill="#6D9A57"/>
<polygon points="738.22,394.58 669.58,406.10 689.82,417.26 758.45,405.74" fill="#6D9A57"/>
<polygon points="669.58,406.10 758.46,405.74 738.22,394.58 649.35,394.94" fill="#6D9A57"/>
<polygon points="628.42,314.13 628.81,308.85 610.26,322.93 609.86,328.21" fill="#6D9A57"/>
<polygon points="626.47,306.50 610.63,306.77 612.98,309.11 628.81,308.85" fill="#6D9A57"/>
<polygon points="609.87,328.21 628.82,308.85 610.63,306.77 591.68,326.12" fill="#6D9A57"/>
<polygon points="549.04,332.04 552.50,327.87 549.04,324.04 545.57,328.21" fill="#6D9A57"/>
<polygon points="568.39,334.94 568.39,326.94 549.04,324.04 549.04,332.04" fill="#6D9A57"/>
<polygon points="579.83,315.40 558.71,329.49 568.39,334.94 589.51,320.85" fill="#6D9A57"/>
<polygon points="558.71,329.49 589.51,320.85 579.83,315.40 549.03,324.04" fill="#6D9A57"/>
<polygon points="579.83,315.40 558.72,329.49 589.51,320.85 610.63,306.77" fill="#6D9A57"/>
<polygon points="564.87,357.07 575.43,358.98 571.77,356.51 561.21,354.60" fill="#6D9A57"/>
<polygon points="575.43,358.98 654.63,356.94 640.40,352.56 561.21,354.60" fill="#6D9A57"/>
<polygon points="654.63,356.94 656.79,354.60 563.38,352.27 561.21,354.60" fill="#6D9A57"/>
<polygon points="654.62,348.83 647.59,341.94 649.75,347.71 656.79,354.60" fill="#6D9A57"/>
<polygon points="647.59,341.94 640.55,339.67 649.75,352.33 656.79,354.60" fill="#6D9A57"/>
<polygon points="615.91,341.25 575.43,344.16 600.07,342.58 640.55,339.67" fill="#6D9A57"/>
<polygon points="575.43,344.16 564.87,345.10 629.99,340.61 640.55,339.67" fill="#6D9A57"/>
<polygon points="564.87,345.10 561.35,347.36 637.03,341.93 640.55,339.67" fill="#6D9A57"/>
<polygon points="561.35,347.36 561.21,354.60 640.40,346.92 640.55,339.67" fill="#6D9A57"/>
<polygon points="648.67,347.14 600.88,347.14 609.00,354.60 656.79,354.60" fill="#6D9A57"/>
<polygon points="609.00,354.60 648.67,347.14 600.88,347.14 561.21,354.60" fill="#6D9A57"/>
<polygon points="609.00,354.60 648.67,347.14 640.55,339.67 600.88,347.14" fill="#6D9A57"/>
<polygon points="577.09,340.53 608.27,337.01 599.58,331.42 568.39,334.94" fill="#6D9A57"/>
<polygon points="609.86,328.21 610.63,306.77 609.04,315.56 608.27,337.01" fill="#6D9A57"/>
<polygon points="589.51,320.85 588.33,335.97 608.27,337.01 609.45,321.89" fill="#6D9A57"/>
<polygon points="588.33,335.97 609.45,321.89 589.51,320.85 568.39,334.94" fill="#6D9A57"/>
<polygon points="589.51,320.85 588.33,335.97 609.45,321.89 610.63,306.77" fill="#6D9A57"/>
<polygon points="577.09,340.53 575.43,344.16 606.62,340.64 608.27,337.01" fill="#6D9A57"/>
<polygon points="583.07,348.41 615.91,341.25 608.28,337.01 575.43,344.16" fill="#6D9A57"/>
<polygon points="397.91,556.98 400.01,549.94 394.52,556.91 392.41,563.95" fill="#6D9A57"/>
<polygon points="397.99,535.87 390.39,549.87 392.41,563.95 400.01,549.95" fill="#6D9A57"/>
<polygon points="397.99,535.87 393.02,525.31 387.43,553.39 392.41,563.95" fill="#6D9A57"/>
<polygon points="393.02,525.31 388.89,524.25 388.29,562.89 392.41,563.95" fill="#6D9A57"/>
<polygon points="385.37,526.67 350.67,569.30 354.19,566.88 388.89,524.25" fill="#6D9A57"/>
<polygon points="371.54,566.63 390.65,544.10 369.78,546.77 350.67,569.30" fill="#6D9A57"/>
<polygon points="369.78,546.77 371.54,566.63 390.65,544.10 388.89,524.25" fill="#6D9A57"/>
<polygon points="369.78,546.77 371.54,566.63 392.41,563.95 390.65,544.10" fill="#6D9A57"/>
<polygon points="325.54,573.87 321.29,576.34 340.65,574.26 344.89,571.79" fill="#6D9A57"/>
<polygon points="317.77,586.90 317.66,595.70 321.19,585.14 321.29,576.34" fill="#6D9A57"/>
<polygon points="344.90,571.79 321.29,576.34 317.66,595.70 341.27,591.15" fill="#6D9A57"/>
<polygon points="317.66,595.70 318.50,598.54 345.73,574.62 344.90,571.79" fill="#6D9A57"/>
<polygon points="322.02,599.47 348.41,572.72 344.89,571.79 318.50,598.54" fill="#6D9A57"/>
<polygon points="350.67,569.30 344.90,571.79 386.64,566.44 392.41,563.95" fill="#6D9A57"/>
<polygon points="357.21,581.71 368.65,567.87 333.46,585.63 322.02,599.47" fill="#6D9A57"/>
<polygon points="357.21,581.71 368.65,567.87 344.89,571.79 333.46,585.63" fill="#6D9A57"/>
<polygon points="368.65,567.87 333.46,585.63 357.21,581.71 392.41,563.95" fill="#6D9A57"/>
<polygon points="557.83,466.33 566.63,464.44 547.28,461.72 538.48,463.60" fill="#6D9A57"/>
<polygon points="575.74,444.35 575.43,437.11 566.33,457.20 566.63,464.44" fill="#6D9A57"/>
<polygon points="538.48,463.60 566.63,464.45 575.43,437.11 547.28,436.27" fill="#6D9A57"/>
<polygon points="515.38,479.55 521.00,465.47 509.97,451.39 504.35,465.47" fill="#6D9A57"/>
<polygon points="515.38,479.55 520.88,479.74 515.47,451.58 509.97,451.39" fill="#6D9A57"/>
<polygon points="509.97,451.40 527.57,472.51 533.20,466.45 515.60,445.33" fill="#6D9A57"/>
<polygon points="521.58,458.92 515.42,465.57 520.88,479.74 527.04,473.09" fill="#6D9A57"/>
<polygon points="527.04,473.10 521.58,458.92 509.97,451.39 515.42,465.57" fill="#6D9A57"/>
<polygon points="515.43,465.57 527.04,473.09 533.20,466.45 521.59,458.92" fill="#6D9A57"/>
<polygon points="571.91,435.01 534.96,461.50 538.48,463.60 575.43,437.11" fill="#6D9A57"/>
<polygon points="557.83,436.59 522.64,441.87 536.72,440.29 571.91,435.01" fill="#6D9A57"/>
<polygon points="522.64,441.87 515.60,445.33 564.87,438.48 571.91,435.01" fill="#6D9A57"/>
<polygon points="538.48,463.60 571.91,435.01 566.63,437.87 533.20,466.45" fill="#6D9A57"/>
<polygon points="543.76,440.17 524.40,455.89 552.56,450.73 571.91,435.01" fill="#6D9A57"/>
<polygon points="543.76,440.17 524.40,455.89 533.20,466.45 552.55,450.73" fill="#6D9A57"/>
<polygon points="524.40,455.89 552.55,450.73 543.76,440.17 515.60,445.33" fill="#6D9A57"/>
<polygon points="258.52,620.34 260.42,625.02 286.66,582.78 284.75,578.10" fill="#6D9A57"/>
<polygon points="305.15,583.38 302.87,574.58 294.07,600.98 296.35,609.78" fill="#6D9A57"/>
<polygon points="292.10,573.86 285.59,609.05 296.35,609.78 302.87,574.58" fill="#6D9A57"/>
<polygon points="284.75,578.10 260.42,625.02 267.77,620.77 292.10,573.86" fill="#6D9A57"/>
<polygon points="278.39,617.40 294.23,591.82 276.26,599.44 260.42,625.02" fill="#6D9A57"/>
<polygon points="276.26,599.44 278.39,617.40 294.23,591.82 292.10,573.86" fill="#6D9A57"/>
<polygon points="276.26,599.44 278.39,617.40 296.35,609.78 294.23,591.82" fill="#6D9A57"/>
<polygon points="479.17,615.06 478.76,618.58 494.07,593.45 494.48,589.93" fill="#6D9A57"/>
<polygon points="482.16,620.43 497.89,591.78 494.48,589.93 478.76,618.58" fill="#6D9A57"/>
<polygon points="499.76,613.75 507.56,608.02 489.96,614.70 482.16,620.43" fill="#6D9A57"/>
<polygon points="512.80,586.90 511.45,581.62 506.21,602.74 507.56,608.02" fill="#6D9A57"/>
<polygon points="502.64,581.62 498.75,608.02 507.56,608.02 511.45,581.62" fill="#6D9A57"/>
<polygon points="494.48,589.93 482.16,620.43 490.32,612.13 502.64,581.62" fill="#6D9A57"/>
<polygon points="494.86,614.23 505.10,594.82 492.40,601.03 482.16,620.43" fill="#6D9A57"/>
<polygon points="492.40,601.03 494.86,614.23 505.10,594.82 502.64,581.62" fill="#6D9A57"/>
<polygon points="492.40,601.03 494.86,614.23 507.56,608.02 505.10,594.82" fill="#6D9A57"/>
<polygon points="373.05,478.10 383.61,465.59 376.57,465.26 366.01,477.77" fill="#6D9A57"/>
<polygon points="390.65,459.48 390.77,463.58 394.29,467.23 394.17,463.13" fill="#6D9A57"/>
<polygon points="390.65,459.48 387.13,459.32 390.77,467.08 394.29,467.23" fill="#6D9A57"/>
<polygon points="373.05,478.10 383.61,472.16 387.13,459.32 376.57,465.26" fill="#6D9A57"/>
<polygon points="387.13,459.32 365.90,470.19 373.05,478.10 394.29,467.23" fill="#6D9A57"/>
<polygon points="391.24,447.87 388.89,445.52 388.30,451.05 390.65,453.40" fill="#6D9A57"/>
<polygon points="381.85,445.36 383.61,453.24 390.65,453.41 388.89,445.52" fill="#6D9A57"/>
<polygon points="382.75,458.56 386.25,449.38 381.85,445.36 378.35,454.54" fill="#6D9A57"/>
<polygon points="378.35,454.54 382.75,458.56 390.65,453.41 386.25,449.38" fill="#6D9A57"/>
<polygon points="386.25,449.38 378.35,454.53 374.85,463.71 382.75,458.56" fill="#6D9A57"/>
<polygon points="374.85,463.71 367.76,463.65 362.49,467.17 369.59,467.23" fill="#6D9A57"/>
<polygon points="362.49,467.17 363.58,463.64 361.29,460.19 360.20,463.71" fill="#6D9A57"/>
<polygon points="374.85,463.71 373.64,456.74 361.29,460.19 362.49,467.17" fill="#6D9A57"/>
<polygon points="371.57,452.78 368.07,461.95 374.85,463.71 378.35,454.54" fill="#6D9A57"/>
<polygon points="368.07,461.95 378.35,454.54 371.57,452.78 361.29,460.19" fill="#6D9A57"/>
<polygon points="371.57,452.78 368.07,461.95 378.35,454.54 381.85,445.36" fill="#6D9A57"/>
<polygon points="369.59,467.23 365.04,474.27 370.30,470.75 374.85,463.71" fill="#6D9A57"/>
<polygon points="365.04,474.27 366.76,475.82 376.57,465.26 374.85,463.71" fill="#6D9A57"/>
<polygon points="377.54,468.77 376.57,465.26 365.04,474.27 366.01,477.77" fill="#6D9A57"/>
<polygon points="406.49,428.82 407.12,414.74 399.94,412.68 399.31,426.76" fill="#6D9A57"/>
<polygon points="417.54,423.24 410.99,407.10 399.94,412.68 406.49,428.82" fill="#6D9A57"/>
<polygon points="421.84,417.96 426.60,400.36 422.29,405.64 417.54,423.24" fill="#6D9A57"/>
<polygon points="426.60,400.36 425.85,390.67 416.79,413.55 417.54,423.24" fill="#6D9A57"/>
<polygon points="422.33,390.88 399.94,412.68 403.46,412.47 425.85,390.67" fill="#6D9A57"/>
<polygon points="412.89,401.67 408.74,417.96 417.54,423.24 421.69,406.95" fill="#6D9A57"/>
<polygon points="421.69,406.96 412.89,401.68 399.94,412.68 408.74,417.96" fill="#6D9A57"/>
<polygon points="408.74,417.96 421.69,406.95 425.85,390.67 412.89,401.68" fill="#6D9A57"/>
<polygon points="187.56,662.57 190.03,666.20 190.01,653.88 187.54,650.25" fill="#6D9A57"/>
<polygon points="193.55,666.38 191.06,650.44 187.55,650.25 190.03,666.20" fill="#6D9A57"/>
<polygon points="206.23,659.05 200.22,642.93 187.55,650.25 193.55,666.38" fill="#6D9A57"/>
<polygon points="211.44,648.50 209.39,643.05 204.17,653.61 206.22,659.05" fill="#6D9A57"/>
<polygon points="195.31,640.74 189.68,644.98 203.76,647.28 209.39,643.05" fill="#6D9A57"/>
<polygon points="189.69,644.98 187.54,650.26 207.25,648.33 209.39,643.05" fill="#6D9A57"/>
<polygon points="198.47,646.65 196.88,654.65 206.22,659.05 207.81,651.05" fill="#6D9A57"/>
<polygon points="207.81,651.05 198.47,646.65 187.54,650.26 196.88,654.65" fill="#6D9A57"/>
<polygon points="196.88,654.66 207.81,651.05 209.39,643.05 198.47,646.65" fill="#6D9A57"/>
<polygon points="417.05,646.15 429.86,641.46 427.43,638.52 414.61,643.22" fill="#6D9A57"/>
<polygon points="429.86,641.46 436.75,634.42 421.50,636.18 414.61,643.22" fill="#6D9A57"/>
<polygon points="436.75,634.42 438.71,629.14 416.57,637.94 414.61,643.22" fill="#6D9A57"/>
<polygon points="434.65,623.67 422.33,623.15 426.39,628.62 438.71,629.14" fill="#6D9A57"/>
<polygon points="418.51,625.62 414.61,643.22 418.43,640.75 422.33,623.15" fill="#6D9A57"/>
<polygon points="430.52,626.14 418.47,633.18 426.66,636.18 438.71,629.14" fill="#6D9A57"/>
<polygon points="426.66,636.18 430.52,626.14 418.47,633.18 414.61,643.22" fill="#6D9A57"/>
<polygon points="426.66,636.18 430.52,626.14 422.33,623.15 418.47,633.18" fill="#6D9A57"/>
<polygon points="360.01,446.12 358.89,451.39 377.22,435.21 378.33,429.93" fill="#6D9A57"/>
<polygon points="362.49,453.45 381.94,431.99 378.33,429.93 358.89,451.39" fill="#6D9A57"/>
<polygon points="385.37,429.20 381.14,435.61 381.85,441.96 386.08,435.55" fill="#6D9A57"/>
<polygon points="378.33,429.93 374.81,442.69 381.85,441.96 385.37,429.20" fill="#6D9A57"/>
<polygon points="372.17,447.70 380.09,435.94 370.41,441.69 362.49,453.45" fill="#6D9A57"/>
<polygon points="370.41,441.69 372.17,447.71 380.09,435.94 378.33,429.93" fill="#6D9A57"/>
<polygon points="370.41,441.69 372.17,447.71 381.85,441.96 380.09,435.94" fill="#6D9A57"/>
<polygon points="591.27,465.58 610.63,458.77 608.33,455.15 588.97,461.95" fill="#6D9A57"/>
<polygon points="610.63,458.77 613.15,453.15 591.50,456.33 588.97,461.95" fill="#6D9A57"/>
<polygon points="602.99,453.15 590.90,457.55 601.06,457.55 613.15,453.15" fill="#6D9A57"/>
<polygon points="601.06,457.55 602.99,453.15 590.90,457.55 588.97,461.95" fill="#6D9A57"/>
<polygon points="601.06,457.55 602.99,453.15 592.82,453.15 590.90,457.55" fill="#6D9A57"/>
<polygon points="175.95,573.39 189.44,567.54 187.58,565.21 174.09,571.06" fill="#6D9A57"/>
<polygon points="182.99,565.39 182.40,568.30 189.44,567.54 190.03,564.64" fill="#6D9A57"/>
<polygon points="186.21,566.47 178.54,568.23 181.76,569.30 189.44,567.54" fill="#6D9A57"/>
<polygon points="181.76,569.30 186.21,566.47 178.54,568.23 174.09,571.06" fill="#6D9A57"/>
<polygon points="181.76,569.30 186.21,566.47 182.99,565.39 178.54,568.23" fill="#6D9A57"/>
</svg>