<svg xmlns="http://www.w3.org/2000/svg" viewBox="-5.0 -5.0 10.0 10.0">
<rect x="-5.0" y="-5.0" width="10.0" height="10.0" fill="#000000"/>
<g fill="#D0021B" stroke="none">
<polygon points="-0.06250,4.35938 0.03125,4.35938 0.04688,4.10938 -0.04688,4.10938"/>
<polygon points="1.32812,3.01562 1.28125,3.43750 1.84375,3.07812 1.89062,2.65625"/>
<polygon points="0.98438,3.40625 1.50000,3.46875 1.84375,3.07812 1.32812,3.01562"/>
<polygon points="1.84375,3.07812 1.64062,3.43750 1.54688,3.71875 1.75000,3.35938"/>
<polygon points="1.54688,3.71875 1.84375,3.07812 0.98438,3.40625 0.68750,4.04688"/>
<polygon points="1.32812,3.01562 1.71875,3.06250 1.89062,2.65625 1.50000,2.60938"/>
<polygon points="0.06250,3.98438 0.28125,3.96875 0.28125,3.73438 0.06250,3.75000"/>
<polygon points="0.06250,3.98438 0.34375,3.90625 0.56250,3.65625 0.28125,3.73438"/>
<polygon points="1.23438,4.06250 0.51562,4.14062 0.18750,4.35938 0.90625,4.28125"/>
<polygon points="1.54688,3.71875 0.50000,4.01562 0.18750,4.35938 1.23438,4.06250"/>
<polygon points="0.18750,4.00000 0.18750,4.35938 1.54688,3.71875 1.54688,3.35938"/>
<polygon points="0.18750,4.00000 0.68750,3.67188 0.56250,3.65625 0.06250,3.98438"/>
<polygon points="0.18750,4.00000 0.60938,3.75000 0.98438,3.40625 0.56250,3.65625"/>
<polygon points="1.54688,3.71875 0.98438,3.40625 0.18750,4.00000 0.75000,4.31250"/>
<polygon points="-1.90625,2.65625 -1.73438,3.06250 -1.34375,3.01562 -1.51562,2.60938"/>
<polygon points="-1.89062,2.92188 -1.32812,3.28125 -1.34375,3.01562 -1.90625,2.65625"/>
<polygon points="-1.76562,3.35938 -1.21875,3.45312 -1.34375,3.01562 -1.89062,2.92188"/>
<polygon points="-1.56250,3.71875 -1.14062,3.37500 -1.34375,3.01562 -1.76562,3.35938"/>
<polygon points="-1.00000,3.40625 -1.31250,3.06250 -1.56250,3.71875 -1.25000,4.06250"/>
<polygon points="-0.07812,3.75000 -0.21875,3.78125 -0.20312,4.00000 -0.06250,3.96875"/>
<polygon points="-0.31250,3.73438 -0.43750,3.98438 -0.20312,4.00000 -0.07812,3.75000"/>
<polygon points="-1.25000,4.06250 -0.82812,4.31250 -0.57812,3.65625 -1.00000,3.40625"/>
<polygon points="-0.18750,4.35938 -0.51562,4.14062 -1.25000,4.06250 -0.92188,4.28125"/>
<polygon points="-0.31250,3.73438 -0.29688,4.09375 -0.18750,4.35938 -0.20312,4.00000"/>
<polygon points="-0.57812,3.65625 -0.45312,4.28125 -0.18750,4.35938 -0.31250,3.73438"/>
<polygon points="-0.57812,3.65625 -1.64062,3.35938 -1.25000,4.06250 -0.18750,4.35938"/>
<polygon points="0.20312,3.31250 0.23438,3.26562 0.26562,3.20312 0.23438,3.25000"/>
<polygon points="0.26562,3.35938 0.32812,3.25000 0.26562,3.20312 0.20312,3.31250"/>
<polygon points="0.84375,3.31250 0.84375,3.15625 0.26562,3.20312 0.26562,3.35938"/>
<polygon points="1.34375,2.54688 1.00000,2.92188 0.84375,3.31250 1.18750,2.93750"/>
<polygon points="1.09375,2.43750 0.59375,3.20312 0.84375,3.31250 1.34375,2.54688"/>
<polygon points="0.26562,3.20312 0.84375,3.31250 1.09375,2.43750 0.51562,2.32812"/>
<polygon points="0.03125,3.59375 0.64062,3.39062 0.84375,3.31250 0.23438,3.51562"/>
<polygon points="0.32812,2.73438 0.54688,2.68750 0.75000,2.15625 0.53125,2.20312"/>
<polygon points="0.26562,3.20312 0.68750,2.62500 0.75000,2.15625 0.32812,2.73438"/>
<polygon points="1.09375,2.43750 0.75000,2.15625 0.26562,3.20312 0.60938,3.48438"/>
<polygon points="0.03125,3.59375 0.09375,3.48438 0.10938,3.12500 0.04688,3.23438"/>
<polygon points="0.20312,3.31250 0.07812,3.45312 0.03125,3.59375 0.15625,3.45312"/>
<polygon points="0.10938,3.12500 0.12500,3.18750 0.20312,3.31250 0.18750,3.25000"/>
<polygon points="0.84375,3.31250 0.87500,3.15625 0.26562,3.35938 0.23438,3.51562"/>
<polygon points="0.20312,3.31250 0.23438,3.25000 0.18750,3.25000 0.15625,3.31250"/>
<polygon points="-1.20312,2.93750 -0.95312,2.82812 -1.10938,2.43750 -1.35938,2.54688"/>
<polygon points="-0.76562,2.15625 -0.62500,2.59375 -0.40625,2.64062 -0.54688,2.20312"/>
<polygon points="-0.21875,3.01562 -0.21875,3.31250 -0.17188,3.57812 -0.17188,3.28125"/>
<polygon points="-0.40625,2.64062 -0.35938,3.20312 -0.17188,3.57812 -0.21875,3.01562"/>
<polygon points="-0.76562,2.15625 -0.53125,3.09375 -0.17188,3.57812 -0.40625,2.64062"/>
<polygon points="-1.20312,2.93750 -0.85938,2.65625 -0.76562,2.15625 -1.10938,2.43750"/>
<polygon points="-0.53125,3.50000 -0.79688,3.18750 -1.20312,2.93750 -0.93750,3.25000"/>
<polygon points="-0.17188,3.57812 -0.84375,3.01562 -1.20312,2.93750 -0.53125,3.50000"/>
<polygon points="-3.59375,2.01562 -3.82812,2.14062 -3.78125,2.23438 -3.54688,2.10938"/>
<polygon points="3.59375,2.00000 3.54688,2.09375 3.76562,2.21875 3.81250,2.12500"/>
<polygon points="-3.37500,2.12500 -3.18750,2.01562 -3.23438,1.93750 -3.42188,2.04688"/>
<polygon points="-2.95312,2.26562 -3.23438,1.93750 -3.37500,2.12500 -3.09375,2.45312"/>
<polygon points="-2.95312,2.26562 -2.93750,2.82812 -2.75000,2.96875 -2.76562,2.40625"/>
<polygon points="-3.29688,2.89062 -3.28125,2.84375 -3.67188,2.32812 -3.68750,2.37500"/>
<polygon points="-2.90625,3.28125 -3.28125,2.71875 -3.67188,2.32812 -3.29688,2.89062"/>
<polygon points="-2.60938,3.51562 -3.10938,2.42188 -3.40625,2.18750 -2.90625,3.28125"/>
<polygon points="-2.95312,2.26562 -2.81250,2.81250 -2.60938,3.51562 -2.75000,2.96875"/>
<polygon points="-3.40625,2.18750 -2.98438,2.32812 -2.95312,2.26562 -3.37500,2.12500"/>
<polygon points="3.21875,1.92188 3.17188,2.01562 3.35938,2.12500 3.40625,2.03125"/>
<polygon points="2.73438,2.96875 3.06250,2.68750 3.07812,2.12500 2.75000,2.40625"/>
<polygon points="3.07812,2.12500 3.21875,2.32812 3.35938,2.12500 3.21875,1.92188"/>
<polygon points="3.07812,2.12500 3.10938,2.17188 3.39062,2.17188 3.35938,2.12500"/>
<polygon points="3.39062,2.17188 3.07812,2.12500 2.73438,2.96875 3.04688,3.01562"/>
<polygon points="2.59375,3.51562 3.25000,2.71875 3.39062,2.17188 2.73438,2.96875"/>
<polygon points="3.28125,2.89062 2.98438,3.12500 2.59375,3.51562 2.89062,3.28125"/>
<polygon points="3.68750,2.34375 3.00000,2.96875 2.59375,3.51562 3.28125,2.89062"/>
<polygon points="1.37500,2.39062 1.10938,2.18750 0.90625,2.09375 1.17188,2.29688"/>
<polygon points="1.34375,1.82812 1.32812,2.18750 1.37500,2.39062 1.39062,2.03125"/>
<polygon points="-1.39062,2.39062 -1.34375,2.18750 -1.35938,1.82812 -1.40625,2.03125"/>
<polygon points="-0.92188,2.07812 -1.12500,2.17188 -1.39062,2.39062 -1.18750,2.29688"/>
<polygon points="1.89062,2.42188 1.57812,2.06250 1.56250,2.14062 1.87500,2.50000"/>
<polygon points="1.75000,1.87500 1.81250,2.20312 1.89062,2.42188 1.82812,2.09375"/>
<polygon points="1.59375,1.60938 1.73438,2.15625 1.89062,2.42188 1.75000,1.87500"/>
<polygon points="1.56250,2.14062 1.67188,2.03125 1.59375,1.60938 1.48438,1.71875"/>
<polygon points="-1.90625,2.42188 -1.82812,2.20312 -1.76562,1.87500 -1.84375,2.09375"/>
<polygon points="-1.89062,2.50000 -1.75000,1.95312 -1.76562,1.87500 -1.90625,2.42188"/>
<polygon points="-1.60938,1.60938 -1.68750,2.03125 -1.57812,2.14062 -1.50000,1.71875"/>
<polygon points="-1.89062,2.50000 -1.73438,2.23438 -1.60938,1.60938 -1.76562,1.87500"/>
<polygon points="3.21875,1.57812 2.85938,1.93750 2.71875,2.21875 3.07812,1.85938"/>
<polygon points="3.29688,1.26562 2.79688,1.90625 2.71875,2.21875 3.21875,1.57812"/>
<polygon points="2.59375,1.71875 2.68750,1.67188 3.29688,1.26562 3.20312,1.31250"/>
<polygon points="2.64062,1.53125 2.85938,1.43750 2.98438,1.29688 2.76562,1.39062"/>
<polygon points="2.59375,1.71875 2.93750,1.48438 2.98438,1.29688 2.64062,1.53125"/>
<polygon points="3.20312,1.31250 2.98438,1.29688 2.59375,1.71875 2.81250,1.73438"/>
<polygon points="-3.23438,1.57812 -3.14062,1.62500 -3.21875,1.31250 -3.31250,1.26562"/>
<polygon points="-3.09375,1.85938 -3.07812,1.59375 -3.21875,1.31250 -3.23438,1.57812"/>
<polygon points="-2.73438,2.21875 -2.85938,1.67188 -3.21875,1.31250 -3.09375,1.85938"/>
<polygon points="-2.65625,1.53125 -2.78125,2.03125 -2.73438,2.21875 -2.60938,1.71875"/>
<polygon points="-3.00000,1.29688 -2.87500,1.43750 -2.65625,1.53125 -2.78125,1.39062"/>
<polygon points="-3.21875,1.31250 -2.87500,1.54688 -2.65625,1.53125 -3.00000,1.29688"/>
<polygon points="1.51562,1.46875 1.28125,1.23438 0.98438,0.98438 1.21875,1.21875"/>
<polygon points="-1.23438,1.15625 -1.46875,1.39062 -1.23438,1.21875 -1.00000,0.98438"/>
<polygon points="-1.23438,1.15625 -1.43750,1.50000 -1.43750,1.56250 -1.23438,1.21875"/>
<polygon points="-0.82812,1.95312 -0.92188,1.84375 -1.29688,1.64062 -1.20312,1.75000"/>
<polygon points="-0.73438,1.85938 -1.20312,1.54688 -1.29688,1.64062 -0.82812,1.95312"/>
<polygon points="-0.57812,0.92188 -0.71875,1.20312 -0.73438,1.85938 -0.59375,1.57812"/>
<polygon points="-1.14062,1.35938 -0.81250,1.17188 -0.57812,0.92188 -0.90625,1.10938"/>
<polygon points="-1.29688,1.64062 -0.73438,1.20312 -0.57812,0.92188 -1.14062,1.35938"/>
<polygon points="1.28125,1.64062 0.95312,1.81250 0.81250,1.95312 1.14062,1.78125"/>
<polygon points="1.07812,1.29688 0.60938,1.60938 0.81250,1.95312 1.28125,1.64062"/>
<polygon points="0.56250,0.90625 0.75000,1.09375 1.07812,1.29688 0.89062,1.10938"/>
<polygon points="0.67188,1.78125 0.67188,1.15625 0.56250,0.90625 0.56250,1.53125"/>
<polygon points="0.81250,1.95312 0.70312,1.07812 0.56250,0.90625 0.67188,1.78125"/>
<polygon points="2.06250,0.45312 2.03125,0.46875 1.96875,0.70312 2.00000,0.68750"/>
<polygon points="-1.98438,0.70312 -2.04688,0.46875 -2.07812,0.45312 -2.01562,0.68750"/>
<polygon points="0.06250,1.07812 0.31250,1.50000 0.42188,0.79688 0.17188,0.37500"/>
<polygon points="0.28125,2.51562 0.34375,1.10938 0.06250,1.07812 0.00000,2.48438"/>
<polygon points="0.42188,0.79688 0.28125,1.39062 0.28125,2.51562 0.42188,1.92188"/>
<polygon points="-0.42188,2.10938 -0.42188,1.09375 -0.45312,0.82812 -0.45312,1.84375"/>
<polygon points="-0.25000,2.65625 -0.28125,1.37500 -0.45312,0.82812 -0.42188,2.10938"/>
<polygon points="-0.03125,2.46875 -0.23438,0.64062 -0.45312,0.82812 -0.25000,2.65625"/>
<polygon points="-0.18750,0.37500 -0.14062,1.76562 -0.03125,2.46875 -0.07812,1.07812"/>
<polygon points="-0.25000,2.65625 0.03125,2.68750 0.28125,2.51562 0.00000,2.48438"/>
<polygon points="-0.25000,2.65625 -0.21875,2.67188 0.00000,2.48438 -0.03125,2.46875"/>
<polygon points="0.20312,0.29688 0.40625,0.40625 0.42188,0.28125 0.21875,0.17188"/>
<polygon points="-0.45312,0.29688 -0.43750,0.42188 -0.21875,0.29688 -0.23438,0.17188"/>
<polygon points="0.84375,0.34375 0.59375,0.15625 0.60938,0.20312 0.85938,0.39062"/>
<polygon points="0.82812,0.45312 0.60938,0.51562 0.56250,0.53125 0.78125,0.46875"/>
<polygon points="1.18750,0.64062 1.18750,0.68750 1.32812,0.87500 1.32812,0.82812"/>
<polygon points="2.12500,1.53125 2.07812,1.50000 1.96875,1.46875 2.01562,1.50000"/>
<polygon points="2.18750,2.59375 2.17188,2.53125 1.98438,2.32812 2.00000,2.39062"/>
<polygon points="2.06250,3.34375 2.27163,3.03005 2.24639,3.01322 2.03726,3.32692"/>
<polygon points="1.92188,3.62500 1.85938,3.37500 1.84375,3.43750 1.90625,3.68750"/>
<polygon points="2.57812,3.17188 2.50000,3.29688 2.48438,3.37500 2.56250,3.25000"/>
<polygon points="2.60938,2.25000 2.57812,2.39062 2.59375,2.48438 2.62500,2.34375"/>
<polygon points="2.39062,1.60938 2.35938,1.45312 2.32812,1.37500 2.35938,1.53125"/>
<polygon points="2.17188,1.20312 2.12500,1.07812 2.07812,0.98438 2.12500,1.10938"/>
<polygon points="1.07812,0.20312 1.01562,0.18750 1.10938,0.28125 1.17188,0.29688"/>
<polygon points="0.82812,0.45312 0.87500,0.42188 0.90625,0.35938 0.85938,0.39062"/>
<polygon points="1.65625,1.18750 1.57812,1.14062 1.32812,1.10938 1.40625,1.15625"/>
<polygon points="2.15625,2.96875 2.28125,2.67188 2.28125,2.60938 2.15625,2.90625"/>
<polygon points="2.20312,2.89062 2.17188,2.93750 2.15625,2.96875 2.18750,2.92188"/>
<polygon points="2.29688,2.65625 2.25000,2.73438 2.15625,2.96875 2.20312,2.89062"/>
<polygon points="2.06250,3.34375 2.10938,3.29688 2.12500,3.25000 2.07812,3.29688"/>
<polygon points="1.76562,4.00000 1.81250,3.95312 1.73438,3.95312 1.68750,4.00000"/>
<polygon points="1.96875,3.76562 1.76562,3.96875 1.76562,4.00000 1.96875,3.79688"/>
<polygon points="1.43750,0.56250 1.50000,0.53125 1.50000,0.50000 1.43750,0.53125"/>
<polygon points="0.98438,0.62500 0.92188,0.59375 1.00000,0.67188 1.06250,0.70312"/>
<polygon points="0.98438,0.62500 0.76562,0.42188 0.78125,0.46875 1.00000,0.67188"/>
<polygon points="1.37500,0.92188 1.37500,0.82812 1.32812,0.82812 1.32812,0.92188"/>
<polygon points="1.84375,1.37500 1.81250,1.31250 1.84375,1.43750 1.87500,1.50000"/>
<polygon points="1.98438,1.78125 2.03125,1.79688 2.06250,1.78125 2.01562,1.76562"/>
<polygon points="2.14062,2.20312 2.15625,1.90625 2.14062,1.84375 2.12500,2.14062"/>
<polygon points="2.18750,1.85938 2.17188,1.96875 2.14062,2.20312 2.15625,2.09375"/>
<polygon points="2.14062,2.20312 2.17188,2.15625 2.15625,2.09375 2.12500,2.14062"/>
<polygon points="2.17188,2.51562 2.20312,2.54688 2.28125,2.25000 2.25000,2.21875"/>
<polygon points="2.28125,2.25000 2.25000,2.34375 2.18750,2.59375 2.21875,2.50000"/>
<polygon points="2.18750,2.59375 2.21875,2.53125 2.21875,2.50000 2.18750,2.56250"/>
<polygon points="2.32812,3.09375 2.26562,3.00000 2.18750,2.92188 2.25000,3.01562"/>
<polygon points="2.14062,3.40625 2.15625,3.35938 2.12500,3.25000 2.10938,3.29688"/>
<polygon points="1.92188,3.62500 1.92188,3.65625 2.14062,3.43750 2.14062,3.40625"/>
<polygon points="2.14062,3.43750 2.06250,3.51562 1.90625,3.68750 1.98438,3.60938"/>
<polygon points="1.90625,3.68750 1.96875,3.67188 1.98438,3.60938 1.92188,3.62500"/>
<polygon points="2.48438,3.31250 2.42188,3.20312 2.42188,3.26562 2.48438,3.37500"/>
<polygon points="1.06250,0.70312 1.04688,0.64062 0.98438,0.62500 1.00000,0.68750"/>
<polygon points="1.45312,0.85938 1.40625,0.82812 1.32812,0.82812 1.37500,0.85938"/>
<polygon points="2.34375,2.26562 2.26562,2.20312 2.17188,2.15625 2.25000,2.21875"/>
<polygon points="2.28125,2.60938 2.28125,2.57812 2.21875,2.50000 2.21875,2.53125"/>
<polygon points="1.96875,3.79688 1.98438,3.73438 1.98438,3.60938 1.96875,3.67188"/>
<polygon points="2.03125,3.85938 2.00000,3.76562 1.96875,3.79688 2.00000,3.89062"/>
<polygon points="1.01562,0.34375 0.95312,0.32812 0.84375,0.34375 0.90625,0.35938"/>
<polygon points="1.18750,0.64062 1.12500,0.62500 0.98438,0.62500 1.04688,0.64062"/>
<polygon points="1.23438,0.57812 1.12500,0.60938 1.18750,0.64062 1.29688,0.60938"/>
<polygon points="1.45312,0.85938 1.57812,1.07812 1.62500,1.09375 1.50000,0.87500"/>
<polygon points="1.84375,1.37500 1.89062,1.42188 2.12500,1.53125 2.07812,1.48438"/>
<polygon points="2.26562,3.06250 2.34375,3.14062 2.32812,3.09375 2.25000,3.01562"/>
<polygon points="2.14062,3.43750 2.20312,3.51562 2.20312,3.48438 2.14062,3.40625"/>
<polygon points="1.17188,0.29688 1.12500,0.29688 1.01562,0.34375 1.06250,0.34375"/>
<polygon points="1.62500,0.87500 1.57812,0.85938 1.45312,0.85938 1.50000,0.87500"/>
<polygon points="2.01562,1.50000 2.00000,1.54688 2.01562,1.76562 2.03125,1.71875"/>
<polygon points="2.28125,2.25000 2.37500,2.29688 2.34375,2.26562 2.25000,2.21875"/>
<polygon points="2.29688,2.65625 2.39062,2.71875 2.37500,2.67188 2.28125,2.60938"/>
<polygon points="2.26562,3.06250 2.31250,3.09375 2.37500,3.12500 2.32812,3.09375"/>
<polygon points="2.14062,3.43750 2.18750,3.48438 2.25000,3.53125 2.20312,3.48438"/>
<polygon points="2.00000,3.89062 2.23438,3.67188 2.26562,3.64062 2.03125,3.85938"/>
<polygon points="1.06250,0.34375 1.12500,0.42188 1.29688,0.60938 1.23438,0.53125"/>
<polygon points="1.29688,0.60938 1.07812,0.37500 1.01562,0.34375 1.23438,0.57812"/>
<polygon points="1.43750,0.56250 1.48438,0.65625 1.62500,0.87500 1.57812,0.78125"/>
<polygon points="1.62500,0.87500 1.43750,0.59375 1.39062,0.54688 1.57812,0.82812"/>
<polygon points="1.62500,1.09375 1.62500,1.15625 1.65625,1.18750 1.65625,1.12500"/>
<polygon points="1.62500,1.09375 1.57812,1.04688 1.60938,1.14062 1.65625,1.18750"/>
<polygon points="2.28125,2.25000 2.32812,2.26562 2.39062,2.28125 2.34375,2.26562"/>
<polygon points="2.29688,2.65625 2.32812,2.67188 2.40625,2.68750 2.37500,2.67188"/>
<polygon points="1.73438,1.14062 1.70312,1.10938 1.62500,1.09375 1.65625,1.12500"/>
<polygon points="1.85938,1.12500 1.70312,1.12500 1.73438,1.14062 1.89062,1.14062"/>
<polygon points="2.12500,1.53125 2.10938,1.48438 2.07812,1.48438 2.09375,1.53125"/>
<polygon points="2.06250,1.78125 2.03125,1.71875 2.01562,1.76562 2.04688,1.82812"/>
<polygon points="2.48438,2.42188 2.46875,2.45312 2.40625,2.68750 2.42188,2.65625"/>
<polygon points="2.48438,2.37500 2.40625,2.64062 2.40625,2.68750 2.48438,2.42188"/>
<polygon points="2.29688,3.71875 2.29688,3.67188 2.26562,3.64062 2.26562,3.68750"/>
<polygon points="1.29688,0.60938 1.28125,0.54688 1.23438,0.53125 1.25000,0.59375"/>
<polygon points="2.04688,1.18750 2.06250,1.26562 2.10938,1.48438 2.09375,1.40625"/>
<polygon points="2.03125,1.17188 2.09375,1.46875 2.10938,1.48438 2.04688,1.18750"/>
<polygon points="2.14062,1.84375 2.10938,1.78125 2.03125,1.71875 2.06250,1.78125"/>
<polygon points="2.23438,1.85938 2.18750,1.84375 2.14062,1.84375 2.18750,1.85938"/>
<polygon points="2.29688,3.71875 2.25000,3.48438 2.23498,3.48738 2.28185,3.72175"/>
<polygon points="1.73438,0.82812 1.86967,1.14945 1.89202,1.14004 1.75673,0.81871"/>
<polygon points="1.43750,0.53125 1.23438,0.53125 1.23438,0.54688 1.43750,0.54688"/>
<polygon points="2.18750,1.85938 2.28125,1.92188 2.23438,1.85938 2.14062,1.79688"/>
<polygon points="2.25000,3.53125 2.25000,3.48438 2.20312,3.48438 2.20312,3.53125"/>
<polygon points="1.43750,0.53125 1.39062,0.54688 1.43750,0.56250 1.48438,0.54688"/>
<polygon points="2.26562,1.56250 2.26562,1.67188 2.28125,1.92188 2.28125,1.81250"/>
<polygon points="2.23438,1.85938 2.25000,1.87500 2.26562,1.56250 2.25000,1.54688"/>
<polygon points="2.40625,3.25000 2.23438,3.46875 2.25000,3.48438 2.42188,3.26562"/>
<polygon points="2.40625,3.25000 2.40625,3.20312 2.37500,3.07812 2.37500,3.12500"/>
<polygon points="2.37500,3.07812 2.40625,3.25000 2.42188,3.26562 2.39062,3.09375"/>
<polygon points="1.62500,0.87500 1.62500,0.81250 1.57812,0.78125 1.57812,0.84375"/>
<polygon points="1.73438,0.82812 1.68750,0.79688 1.57812,0.78125 1.62500,0.81250"/>
<polygon points="2.50000,2.84375 2.45312,2.85938 2.32812,3.09375 2.37500,3.07812"/>
<polygon points="1.76562,0.84375 1.85938,0.82812 1.82812,0.81250 1.73438,0.82812"/>
<polygon points="1.82812,0.81250 1.70312,0.82812 1.76562,0.84375 1.89062,0.82812"/>
<polygon points="2.57812,2.93750 2.56250,2.89062 2.48438,2.79688 2.50000,2.84375"/>
<polygon points="2.56250,2.85938 2.48438,2.75000 2.40625,2.68750 2.48438,2.79688"/>
<polygon points="2.40625,2.68750 2.54688,2.89062 2.56250,2.85938 2.42188,2.65625"/>
<polygon points="2.03125,1.17188 1.95312,1.10938 1.85938,1.06250 1.93750,1.12500"/>
<polygon points="2.04688,1.18750 2.12500,1.17188 2.10938,1.15625 2.03125,1.17188"/>
<polygon points="2.10938,1.15625 1.98438,1.14062 2.04688,1.18750 2.17188,1.20312"/>
<polygon points="2.51562,2.40625 2.51562,2.35938 2.48438,2.37500 2.48438,2.42188"/>
<polygon points="2.39062,2.23438 2.42188,2.29688 2.59375,2.48438 2.56250,2.42188"/>
<polygon points="2.10938,1.48438 2.14062,1.46875 2.09375,1.40625 2.06250,1.42188"/>
<polygon points="2.25000,1.54688 2.20312,1.48438 2.09375,1.40625 2.14062,1.46875"/>
<polygon points="2.39062,2.23438 2.40625,2.00000 2.39062,1.93750 2.37500,2.17188"/>
<polygon points="2.39062,1.60938 2.37500,1.59375 2.25000,1.54688 2.26562,1.56250"/>
<polygon points="2.25000,1.54688 2.39062,1.60938 2.32812,1.54688 2.18750,1.48438"/>
<polygon points="2.43750,1.96875 2.42188,1.90625 2.39062,1.93750 2.40625,2.00000"/>
<polygon points="2.48438,1.96875 2.34375,1.87500 2.39062,1.93750 2.53125,2.03125"/>
<polygon points="2.39062,1.93750 2.37500,1.89062 2.28125,1.81250 2.29688,1.85938"/>
<polygon points="2.28125,1.92188 2.29688,1.85938 2.28125,1.81250 2.26562,1.87500"/>
<polygon points="3.14062,0.81250 2.90625,0.65625 2.71875,0.65625 2.95312,0.81250"/>
<polygon points="3.25000,0.75000 2.82812,0.59375 2.71875,0.65625 3.14062,0.81250"/>
<polygon points="2.90625,0.10938 3.04688,0.48438 3.25000,0.75000 3.10938,0.37500"/>
<polygon points="2.10938,0.85938 2.40625,0.76562 2.53125,0.32812 2.23438,0.42188"/>
<polygon points="2.40625,1.00000 2.37500,1.17188 2.42188,1.31250 2.45312,1.14062"/>
<polygon points="2.71875,0.98438 2.62500,1.01562 2.59375,1.07812 2.68750,1.04688"/>
<polygon points="2.71875,0.98438 2.56250,0.89062 2.43750,0.98438 2.59375,1.07812"/>
<polygon points="2.43750,0.98438 2.71875,0.98438 2.71875,0.65625 2.43750,0.65625"/>
<polygon points="2.43750,0.98438 2.14062,0.84375 2.10938,0.85938 2.40625,1.00000"/>
<polygon points="2.71875,0.65625 2.39062,0.53125 2.10938,0.85938 2.43750,0.98438"/>
<polygon points="2.10938,0.85938 2.48438,0.64062 2.90625,0.10938 2.53125,0.32812"/>
<polygon points="-3.12500,0.37500 -2.75000,0.59375 -2.54688,0.32812 -2.92188,0.10938"/>
<polygon points="-2.43750,1.31250 -2.39062,1.17188 -2.42188,1.00000 -2.46875,1.14062"/>
<polygon points="-3.12500,0.37500 -2.82812,0.46875 -2.25000,0.42188 -2.54688,0.32812"/>
<polygon points="-2.96875,0.81250 -3.07812,0.75000 -3.26562,0.75000 -3.15625,0.81250"/>
<polygon points="-2.73438,0.65625 -3.03125,0.59375 -3.26562,0.75000 -2.96875,0.81250"/>
<polygon points="-3.12500,0.37500 -3.26562,0.75000 -2.73438,0.65625 -2.59375,0.28125"/>
<polygon points="-2.59375,1.07812 -2.62500,1.01562 -2.73438,0.98438 -2.70312,1.04688"/>
<polygon points="-2.45312,0.98438 -2.59375,0.89062 -2.73438,0.98438 -2.59375,1.07812"/>
<polygon points="-2.73438,0.65625 -2.73438,0.98438 -2.45312,0.98438 -2.45312,0.65625"/>
<polygon points="-2.43750,1.31250 -2.26562,0.73438 -2.25000,0.42188 -2.42188,1.00000"/>
<polygon points="-2.42188,1.00000 -2.70312,0.67188 -2.73438,0.65625 -2.45312,0.98438"/>
<polygon points="4.26562,0.34375 4.17188,1.15625 4.28125,0.90625 4.37500,0.09375"/>
<polygon points="4.10938,1.50000 4.28125,0.90625 4.26562,0.34375 4.09375,0.93750"/>
<polygon points="3.40625,1.53125 3.76562,1.26562 3.81250,0.90625 3.45312,1.17188"/>
<polygon points="4.06250,0.64062 3.90625,1.79688 4.10938,1.50000 4.26562,0.34375"/>
<polygon points="4.10938,1.50000 3.79688,1.31250 3.56250,1.82812 3.87500,2.01562"/>
<polygon points="3.28125,1.81250 3.68750,1.18750 3.81250,0.90625 3.40625,1.53125"/>
<polygon points="3.56250,1.82812 3.37500,1.71875 3.28125,1.81250 3.46875,1.92188"/>
<polygon points="3.28125,1.81250 3.53125,1.54688 4.06250,0.64062 3.81250,0.90625"/>
<polygon points="-4.34375,0.64062 -4.23438,0.89062 -4.28125,0.34375 -4.39062,0.09375"/>
<polygon points="-3.82812,0.90625 -3.78125,1.26562 -3.42188,1.53125 -3.46875,1.17188"/>
<polygon points="-4.21875,1.21875 -4.15625,0.92188 -4.28125,0.34375 -4.34375,0.64062"/>
<polygon points="-3.90625,2.00000 -3.96875,1.12500 -4.28125,0.34375 -4.21875,1.21875"/>
<polygon points="-3.56250,1.82812 -3.59375,1.81250 -3.90625,2.00000 -3.87500,2.01562"/>
<polygon points="-4.28125,0.34375 -3.76562,1.53125 -3.56250,1.82812 -4.07812,0.64062"/>
<polygon points="-3.82812,0.90625 -3.70312,1.20312 -3.29688,1.82812 -3.42188,1.53125"/>
<polygon points="-4.07812,0.64062 -3.54688,1.56250 -3.29688,1.82812 -3.82812,0.90625"/>
<polygon points="-3.29688,1.82812 -3.35938,1.73438 -3.56250,1.82812 -3.50000,1.92188"/>
<polygon points="-3.56250,1.82812 -3.29688,1.82812 -4.07812,0.64062 -4.34375,0.64062"/>
<polygon points="-2.28125,1.59375 -2.28125,1.64062 -2.26562,1.75000 -2.26562,1.70312"/>
<polygon points="-2.42188,1.98438 -2.42188,2.03125 -2.39062,2.14062 -2.39062,2.09375"/>
<polygon points="-2.57812,2.35938 -2.50000,2.45312 -2.42188,2.53125 -2.50000,2.43750"/>
<polygon points="-2.12500,3.73438 -2.01562,3.76562 -2.03125,3.73438 -2.14062,3.70312"/>
<polygon points="-2.20312,2.64062 -2.18750,2.70312 -2.00000,2.90625 -2.01562,2.84375"/>
<polygon points="-1.96875,0.84375 -1.82812,0.78125 -1.78125,0.71875 -1.92188,0.78125"/>
<polygon points="-2.17188,1.10938 -2.20312,1.17188 -2.10938,1.10938 -2.07812,1.04688"/>
<polygon points="-2.10938,1.10938 -2.09375,1.21875 -2.06250,1.32812 -2.07812,1.21875"/>
<polygon points="-2.62500,2.98438 -2.59375,2.84375 -2.60938,2.75000 -2.64062,2.89062"/>
<polygon points="-2.48438,3.26562 -2.29688,3.42188 -2.28023,3.40190 -2.46773,3.24565"/>
<polygon points="-2.17188,3.75000 -2.35938,3.67188 -2.39062,3.67188 -2.20312,3.75000"/>
<polygon points="-2.39062,3.67188 -2.32812,3.68750 -2.26562,3.68750 -2.32812,3.67188"/>
<polygon points="-1.78125,3.56250 -1.82812,3.51562 -2.06250,3.39062 -2.01562,3.43750"/>
<polygon points="-2.06250,3.39062 -2.03125,3.43750 -1.78125,3.56250 -1.81250,3.51562"/>
<polygon points="-1.12500,0.73438 -1.17188,0.78125 -1.25000,1.03125 -1.20312,0.98438"/>
<polygon points="-0.65625,0.17188 -0.75000,0.28125 -0.76562,0.31250 -0.67188,0.20312"/>
<polygon points="-0.76562,0.31250 -0.60938,0.09375 -0.65625,0.10938 -0.81250,0.32812"/>
<polygon points="-0.59375,0.07812 -0.70312,0.21875 -0.76562,0.31250 -0.65625,0.17188"/>
<polygon points="-2.32812,1.43750 -2.32812,1.48438 -2.28125,1.59375 -2.28125,1.54688"/>
<polygon points="-2.50000,1.85938 -2.50000,1.89062 -2.42188,1.98438 -2.42188,1.95312"/>
<polygon points="-2.42188,1.98438 -2.50000,1.85938 -2.50000,1.92188 -2.42188,2.04688"/>
<polygon points="-2.59375,2.29688 -2.57812,2.34375 -2.50000,2.43750 -2.51562,2.39062"/>
<polygon points="-2.50000,2.43750 -2.59375,2.29688 -2.57812,2.35938 -2.48438,2.50000"/>
<polygon points="-2.43750,2.56250 -2.40625,2.59375 -2.39062,2.56250 -2.42188,2.53125"/>
<polygon points="-2.50000,2.85938 -2.43750,2.60938 -2.43750,2.56250 -2.50000,2.81250"/>
<polygon points="-2.26562,3.68750 -2.28125,3.65625 -2.32812,3.67188 -2.31250,3.70312"/>
<polygon points="-1.90625,3.79688 -1.85938,3.84375 -1.84375,3.78125 -1.89062,3.73438"/>
<polygon points="-2.17188,2.32812 -2.15625,2.28125 -2.18750,2.26562 -2.20312,2.31250"/>
<polygon points="-1.75000,1.25000 -1.79688,1.31250 -1.75000,1.28125 -1.70312,1.21875"/>
<polygon points="-1.75000,1.25000 -1.98438,1.43750 -1.98438,1.46875 -1.75000,1.28125"/>
<polygon points="-2.07812,1.04688 -2.09375,1.09375 -2.07812,1.21875 -2.06250,1.17188"/>
<polygon points="-2.39062,3.01562 -2.42188,2.95312 -2.60938,2.75000 -2.57812,2.81250"/>
<polygon points="-2.43750,3.25000 -2.51562,3.21875 -2.48438,3.26562 -2.40625,3.29688"/>
<polygon points="-2.29688,3.42188 -2.26562,3.35938 -2.28125,3.31250 -2.31250,3.37500"/>
<polygon points="-2.28125,1.54688 -2.23438,1.54688 -2.04688,1.37500 -2.09375,1.37500"/>
<polygon points="-2.42188,1.98438 -2.26562,1.78125 -2.26562,1.75000 -2.42188,1.95312"/>
<polygon points="-2.50000,2.43750 -2.37500,2.18750 -2.39062,2.14062 -2.51562,2.39062"/>
<polygon points="-2.50000,2.85938 -2.50000,2.81250 -2.53125,2.82812 -2.53125,2.87500"/>
<polygon points="-2.25000,3.37500 -2.26562,3.34375 -2.28125,3.65625 -2.26562,3.68750"/>
<polygon points="-2.29688,3.42188 -2.26562,3.48438 -2.25000,3.37500 -2.28125,3.31250"/>
<polygon points="-2.12500,3.73438 -2.09375,3.75000 -2.00000,3.75000 -2.03125,3.73438"/>
<polygon points="-2.00000,3.75000 -1.98438,3.78125 -1.89062,3.82812 -1.90625,3.79688"/>
<polygon points="-0.81250,0.32812 -0.75000,0.34375 -0.70312,0.32812 -0.76562,0.31250"/>
<polygon points="-2.06250,1.17188 -2.01562,1.17188 -1.79688,1.03125 -1.84375,1.03125"/>
<polygon points="-2.04688,1.37500 -2.01562,1.32812 -2.06250,1.32812 -2.09375,1.37500"/>
<polygon points="-2.21875,1.75000 -2.21875,1.70312 -2.26562,1.70312 -2.26562,1.75000"/>
<polygon points="-2.43750,3.25000 -2.40625,3.20312 -2.35938,2.96875 -2.39062,3.01562"/>
<polygon points="-1.78125,0.71875 -1.82812,0.93750 -1.84375,1.03125 -1.79688,0.81250"/>
<polygon points="-1.84375,1.03125 -1.81250,0.96875 -1.78125,0.71875 -1.81250,0.78125"/>
<polygon points="-1.98438,1.42188 -2.00000,1.37500 -2.06250,1.32812 -2.04688,1.37500"/>
<polygon points="-2.17188,1.78125 -2.21875,1.73438 -2.26562,1.70312 -2.21875,1.75000"/>
<polygon points="-2.32812,2.07812 -2.31250,2.12500 -2.26562,2.21875 -2.28125,2.17188"/>
<polygon points="-2.35938,2.96875 -2.37500,2.90625 -2.40625,2.95312 -2.39062,3.01562"/>
<polygon points="-1.79687,0.81250 -1.84375,1.03125 -1.82348,1.03559 -1.77660,0.81684"/>
<polygon points="-1.75000,1.09375 -1.76562,1.04688 -1.81250,0.98438 -1.79688,1.03125"/>
<polygon points="-2.29688,2.60938 -2.32812,2.57812 -2.42188,2.53125 -2.39062,2.56250"/>
<polygon points="-2.39062,2.48438 -2.37500,2.51562 -2.29688,2.60938 -2.31250,2.57812"/>
<polygon points="-2.29688,2.98438 -2.34375,2.96875 -2.40625,2.95312 -2.35938,2.96875"/>
<polygon points="-2.00000,3.75000 -2.01562,3.64062 -2.06250,3.39062 -2.04688,3.50000"/>
<polygon points="-2.26562,3.00000 -2.25000,3.04688 -2.17188,3.12500 -2.18750,3.07812"/>
<polygon points="-2.35938,2.96875 -2.32812,2.98438 -2.26562,3.00000 -2.29688,2.98438"/>
<polygon points="-2.06250,3.39062 -2.07812,3.45312 -2.04688,3.50000 -2.03125,3.43750"/>
<polygon points="-2.15625,3.39062 -2.12500,3.43750 -2.04688,3.50000 -2.07812,3.45312"/>
<polygon points="-1.79688,0.87500 -1.54688,0.75000 -1.50000,0.70312 -1.75000,0.82812"/>
<polygon points="-1.46875,0.59375 -1.50000,0.60938 -1.53125,0.71875 -1.50000,0.70312"/>
<polygon points="-1.43750,0.56250 -1.43750,0.46875 -1.46875,0.50000 -1.46875,0.59375"/>
<polygon points="-1.46875,0.50000 -1.48438,0.62500 -1.43750,0.56250 -1.42188,0.43750"/>
<polygon points="-1.45312,0.82812 -1.45312,0.78125 -1.50000,0.70312 -1.50000,0.75000"/>
<polygon points="-2.15625,3.39062 -2.15625,3.29688 -2.17188,3.03125 -2.17188,3.12500"/>
<polygon points="-1.45312,0.84375 -1.48438,0.89062 -1.53125,0.98438 -1.50000,0.93750"/>
<polygon points="-1.50000,0.75000 -1.50000,0.76562 -1.45312,0.84375 -1.45312,0.82812"/>
<polygon points="-2.17188,3.03125 -2.18750,3.07812 -2.17188,3.12500 -2.15625,3.07812"/>
<polygon points="-1.43750,0.56250 -1.37500,0.56250 -1.15625,0.51562 -1.21875,0.51562"/>
<polygon points="-1.15625,0.51562 -1.12500,0.48438 -1.43750,0.56250 -1.46875,0.59375"/>
<polygon points="-1.07812,0.35938 -1.14062,0.40625 -1.21875,0.51562 -1.15625,0.46875"/>
<polygon points="-1.12500,0.57812 -1.12500,0.53125 -1.15625,0.46875 -1.15625,0.51562"/>
<polygon points="-2.18750,2.70312 -2.21875,2.68750 -2.29688,2.98438 -2.26562,3.00000"/>
<polygon points="-2.29688,2.98438 -2.26562,2.89062 -2.20312,2.64062 -2.23438,2.73438"/>
<polygon points="-1.01562,0.21875 -1.03125,0.23438 -1.07812,0.35938 -1.06250,0.34375"/>
<polygon points="-1.07812,0.35938 -1.01562,0.21875 -1.07812,0.26562 -1.14062,0.40625"/>
<polygon points="-1.14062,0.62500 -1.17188,0.64062 -1.21875,0.73438 -1.18750,0.71875"/>
<polygon points="-1.14062,0.54688 -1.15625,0.59375 -1.14062,0.62500 -1.12500,0.57812"/>
<polygon points="-2.20312,2.64062 -2.23438,2.68750 -2.23438,2.73438 -2.20312,2.68750"/>
<polygon points="-0.81250,0.32812 -0.87500,0.35938 -0.76562,0.35938 -0.70312,0.32812"/>
<polygon points="-1.07812,0.35938 -0.82812,0.34375 -0.81250,0.32812 -1.06250,0.34375"/>
<polygon points="-2.29688,2.60938 -2.29688,2.65625 -2.23438,2.73438 -2.23438,2.68750"/>
<polygon points="-0.76562,0.45312 -0.84375,0.51562 -0.90625,0.57812 -0.82812,0.51562"/>
<polygon points="-2.31250,2.57812 -2.29688,2.54688 -2.20312,2.31250 -2.21875,2.34375"/>
<polygon points="-2.20312,2.31250 -2.31250,2.57812 -2.29688,2.60938 -2.18750,2.34375"/>
<polygon points="-2.34375,2.14062 -2.28125,2.23438 -2.20312,2.31250 -2.26562,2.21875"/>
<polygon points="-0.82812,0.56250 -0.89062,0.60938 -0.84375,0.60938 -0.78125,0.56250"/>
<polygon points="-2.26562,2.21875 -2.06063,1.90194 -2.07942,1.88979 -2.28441,2.20659"/>
<polygon points="-1.21875,0.73438 -1.15625,0.75000 -1.12500,0.73438 -1.18750,0.71875"/>
<polygon points="-2.07812,1.89062 -2.12500,1.92188 -2.14062,1.98438 -2.09375,1.95312"/>
<polygon points="-2.21875,1.75000 -2.17188,1.89062 -2.12500,1.92188 -2.17188,1.78125"/>
<polygon points="-1.18750,0.76562 -1.18750,0.75000 -1.45312,0.82812 -1.45312,0.84375"/>
<polygon points="-1.21875,0.73438 -1.28125,0.76562 -1.18750,0.76562 -1.12500,0.73438"/>
<polygon points="-2.00000,1.62500 -2.01562,1.68750 -1.93750,1.60938 -1.92188,1.54688"/>
<polygon points="-1.53125,0.98438 -1.46875,1.01562 -1.43750,0.96875 -1.50000,0.93750"/>
<polygon points="-1.92188,1.54688 -1.98438,1.56250 -2.00000,1.62500 -1.93750,1.60938"/>
<polygon points="-1.98438,1.42188 -2.00000,1.48438 -2.00000,1.62500 -1.98438,1.56250"/>
<polygon points="-1.43750,0.96875 -1.71875,1.12500 -1.76562,1.15625 -1.48438,1.00000"/>
<polygon points="-1.75000,1.09375 -1.65625,1.07812 -1.43750,0.96875 -1.53125,0.98438"/>
<polygon points="-1.98438,1.42188 -1.95312,1.40625 -1.75000,1.25000 -1.78125,1.26562"/>
<polygon points="-1.79688,1.03125 -1.78125,1.12500 -1.75000,1.25000 -1.76562,1.15625"/>
<polygon points="0.42188,0.20312 0.40625,0.12500 0.23438,0.03125 0.25000,0.10938"/>
<polygon points="-0.25000,0.03125 -0.43750,0.12500 -0.45312,0.20312 -0.26562,0.10938"/>
<polygon points="0.42188,-0.04688 0.40625,-0.09375 0.21875,-0.09375 0.23438,-0.04688"/>
<polygon points="-0.23438,-0.09375 -0.43750,-0.09375 -0.45312,-0.04688 -0.25000,-0.04688"/>
<polygon points="-0.07812,-0.04688 -0.17188,0.07812 -0.17188,0.18750 -0.07812,0.06250"/>
<polygon points="0.15625,-0.14062 0.09375,-0.17188 -0.07812,-0.25000 -0.01562,-0.21875"/>
<polygon points="0.00000,0.23438 -0.12500,0.21875 -0.09375,0.25000 0.03125,0.26562"/>
<polygon points="0.00000,0.23438 -0.07812,0.17188 -0.17188,0.18750 -0.09375,0.25000"/>
<polygon points="-0.01562,-0.21875 -0.10938,0.01562 -0.17188,0.18750 -0.07812,-0.04688"/>
<polygon points="-0.15625,-0.20312 -0.09375,-0.17188 -0.01562,-0.21875 -0.07812,-0.25000"/>
<polygon points="0.15625,0.18750 0.12500,0.15625 0.00000,0.23438 0.03125,0.26562"/>
<polygon points="0.00000,0.23438 0.09375,0.12500 0.15625,-0.14062 0.06250,-0.03125"/>
<polygon points="2.76562,-0.00000 2.54688,0.07812 2.26562,0.25000 2.48438,0.17188"/>
<polygon points="2.26562,-0.26562 2.48438,-0.10938 2.76562,-0.00000 2.54688,-0.15625"/>
<polygon points="-2.78125,-0.00000 -2.50000,-0.10938 -2.28125,-0.26562 -2.56250,-0.15625"/>
<polygon points="-2.28125,0.25000 -2.50000,0.10938 -2.78125,-0.00000 -2.56250,0.14062"/>
<polygon points="1.81250,-0.31250 1.81250,0.26562 2.09375,0.28125 2.09375,-0.29688"/>
<polygon points="1.21875,-0.14062 1.50000,-0.18750 1.81250,-0.31250 1.53125,-0.26562"/>
<polygon points="1.03125,-0.00000 1.62500,-0.17188 1.81250,-0.31250 1.21875,-0.14062"/>
<polygon points="1.53125,0.25000 1.34375,0.12500 1.03125,-0.00000 1.21875,0.12500"/>
<polygon points="1.81250,0.29688 1.31250,0.04688 1.03125,-0.00000 1.53125,0.25000"/>
<polygon points="2.09375,0.28125 1.31250,-0.01562 1.03125,-0.00000 1.81250,0.29688"/>
<polygon points="-2.10938,0.28125 -1.82812,0.26562 -1.82812,-0.31250 -2.10938,-0.29688"/>
<polygon points="-1.54688,0.25000 -1.82812,0.23438 -2.10938,0.28125 -1.82812,0.29688"/>
<polygon points="-1.32812,0.17188 -1.89062,0.20312 -2.10938,0.28125 -1.54688,0.25000"/>
<polygon points="-1.04688,-0.00000 -1.82812,0.10938 -2.10938,0.28125 -1.32812,0.17188"/>
<polygon points="-1.54688,-0.26562 -1.35938,-0.12500 -1.04688,-0.00000 -1.23438,-0.14062"/>
<polygon points="-1.82812,-0.31250 -1.32812,-0.04688 -1.04688,-0.00000 -1.54688,-0.26562"/>
<polygon points="1.75000,-0.46875 1.93750,-0.56250 2.01562,-0.65625 1.82812,-0.56250"/>
<polygon points="-2.03125,-0.65625 -1.95312,-0.56250 -1.76562,-0.46875 -1.84375,-0.56250"/>
<polygon points="0.42188,-0.29688 0.40625,-0.40625 0.18750,-0.28125 0.20312,-0.17188"/>
<polygon points="-0.20312,-0.28125 -0.43750,-0.42188 -0.45312,-0.31250 -0.21875,-0.17188"/>
<polygon points="3.57812,0.48438 4.14062,-0.51562 4.04688,-0.71875 3.48438,0.28125"/>
<polygon points="3.65625,0.56250 4.12500,-0.64062 4.04688,-0.71875 3.57812,0.48438"/>
<polygon points="3.79688,0.57812 4.18750,-0.70312 4.04688,-0.71875 3.65625,0.56250"/>
<polygon points="4.23438,0.15625 4.09375,0.23438 3.79688,0.57812 3.93750,0.50000"/>
<polygon points="4.37500,-0.09375 3.93750,0.32812 3.79688,0.57812 4.23438,0.15625"/>
<polygon points="4.04688,-0.71875 4.12500,0.01562 4.37500,-0.09375 4.29688,-0.82812"/>
<polygon points="4.04688,-0.71875 3.46875,-0.04688 3.79688,0.57812 4.37500,-0.09375"/>
<polygon points="3.25000,0.29688 3.48438,-0.00000 3.25000,-0.31250 3.01562,-0.01562"/>
<polygon points="3.42188,-0.78125 3.59375,-0.68750 3.71875,-0.73438 3.54688,-0.82812"/>
<polygon points="3.37500,-0.57812 3.67188,-0.53125 3.71875,-0.73438 3.42188,-0.78125"/>
<polygon points="3.39062,0.62500 3.39062,0.01562 3.25000,-0.31250 3.25000,0.29688"/>
<polygon points="3.37500,-0.57812 3.28125,-0.23438 3.39062,0.62500 3.48438,0.28125"/>
<polygon points="3.37500,-0.57812 3.70312,-0.56250 4.04688,-0.71875 3.71875,-0.73438"/>
<polygon points="3.48438,0.28125 4.15625,0.14062 4.04688,-0.71875 3.37500,-0.57812"/>
<polygon points="2.17188,-0.71875 2.37500,-0.62500 2.60938,-0.73438 2.40625,-0.82812"/>
<polygon points="3.10938,-0.39062 2.73438,-0.60938 2.53125,-0.34375 2.90625,-0.12500"/>
<polygon points="2.78125,-0.70312 2.64062,-0.35938 3.10938,-0.39062 3.25000,-0.73438"/>
<polygon points="2.23438,-0.43750 2.67188,-0.45312 2.60938,-0.73438 2.17188,-0.71875"/>
<polygon points="3.10938,-0.39062 2.81250,-0.48438 2.23438,-0.43750 2.53125,-0.34375"/>
<polygon points="2.60938,-0.73438 2.93750,-0.42188 3.10938,-0.39062 2.78125,-0.70312"/>
<polygon points="-3.12500,-0.39062 -3.01562,-0.45312 -2.42188,-0.82812 -2.53125,-0.76562"/>
<polygon points="-2.25000,-0.43750 -2.82812,-0.48438 -3.12500,-0.39062 -2.54688,-0.34375"/>
<polygon points="-2.42188,-0.82812 -2.48438,-0.54688 -2.25000,-0.43750 -2.18750,-0.71875"/>
<polygon points="-3.12500,-0.39062 -2.65625,-0.35938 -2.79688,-0.70312 -3.26562,-0.73438"/>
<polygon points="-2.54688,-0.34375 -2.75000,-0.60938 -3.12500,-0.39062 -2.92188,-0.12500"/>
<polygon points="-3.12500,-0.39062 -2.85938,-0.45312 -2.53125,-0.76562 -2.79688,-0.70312"/>
<polygon points="-4.39062,-0.09375 -4.14062,0.01562 -4.06250,-0.71875 -4.31250,-0.82812"/>
<polygon points="-3.26562,-0.31250 -3.50000,-0.00000 -3.26562,0.29688 -3.03125,-0.01562"/>
<polygon points="-3.56250,-0.82812 -3.51562,-0.62500 -3.39062,-0.57812 -3.43750,-0.78125"/>
<polygon points="-4.39062,-0.09375 -4.14062,-0.09375 -3.81250,-0.71875 -4.06250,-0.71875"/>
<polygon points="-4.25000,0.15625 -3.67188,-0.46875 -3.81250,-0.71875 -4.39062,-0.09375"/>
<polygon points="-3.81250,0.57812 -4.10938,0.23438 -4.25000,0.15625 -3.95312,0.50000"/>
<polygon points="-3.67188,0.56250 -4.10938,0.14062 -4.25000,0.15625 -3.81250,0.57812"/>
<polygon points="-3.59375,0.48438 -4.17188,0.07812 -4.25000,0.15625 -3.67188,0.56250"/>
<polygon points="-3.56250,-0.82812 -3.65625,-0.62500 -3.59375,0.48438 -3.50000,0.28125"/>
<polygon points="-4.25000,0.15625 -4.00000,0.04688 -3.56250,-0.82812 -3.81250,-0.71875"/>
<polygon points="-3.39062,-0.57812 -3.39062,0.03125 -3.26562,0.29688 -3.26562,-0.31250"/>
<polygon points="-3.56250,-0.82812 -3.43750,0.04688 -3.26562,0.29688 -3.39062,-0.57812"/>
<polygon points="-3.26562,0.29688 -3.35938,-0.04688 -3.50000,0.28125 -3.40625,0.62500"/>
<polygon points="1.28125,-1.09375 1.48438,-1.43750 1.42188,-1.57812 1.21875,-1.23438"/>
<polygon points="0.93750,-0.79688 0.71875,-0.81250 0.59375,-0.57812 0.81250,-0.56250"/>
<polygon points="0.59375,-0.57812 0.84375,-0.82812 1.21875,-1.23438 0.96875,-0.98438"/>
<polygon points="1.28125,-1.09375 0.93750,-0.87500 0.59375,-0.57812 0.93750,-0.79688"/>
<polygon points="-0.98438,-0.98438 -1.39062,-1.17188 -1.70312,-1.28125 -1.29688,-1.09375"/>
<polygon points="-0.60938,-0.57812 -0.73438,-0.81250 -0.95312,-0.79688 -0.82812,-0.56250"/>
<polygon points="-0.95312,-0.79688 -0.64062,-0.68750 -0.98438,-0.98438 -1.29688,-1.09375"/>
<polygon points="-0.60938,-0.57812 -0.64062,-0.76562 -0.98438,-0.98438 -0.95312,-0.79688"/>
<polygon points="3.98438,-1.00000 4.04688,-1.23438 4.07812,-1.59375 4.01562,-1.35938"/>
<polygon points="4.25000,-1.04688 4.07812,-1.04688 3.98438,-1.00000 4.15625,-1.00000"/>
<polygon points="3.98438,-1.00000 4.15625,-1.28125 4.01562,-1.35938 3.84375,-1.07812"/>
<polygon points="-4.00000,-1.00000 -4.09375,-1.04688 -4.26562,-1.04688 -4.17188,-1.00000"/>
<polygon points="-4.09375,-1.59375 -4.06250,-1.23438 -4.00000,-1.00000 -4.03125,-1.35938"/>
<polygon points="-4.03125,-1.35938 -4.17188,-1.28125 -4.00000,-1.00000 -3.85938,-1.07812"/>
<polygon points="0.56250,-0.92188 0.59375,-1.00000 0.59375,-1.62500 0.56250,-1.54688"/>
<polygon points="1.07812,-1.31250 0.75000,-1.10938 0.56250,-0.92188 0.89062,-1.12500"/>
<polygon points="1.26562,-1.62500 0.75000,-1.23438 0.56250,-0.92188 1.07812,-1.31250"/>
<polygon points="-0.01562,-1.45312 -0.39062,-1.51562 -0.43750,-0.87500 -0.06250,-0.81250"/>
<polygon points="0.42188,-0.87500 0.39062,-1.50000 0.01562,-1.43750 0.04688,-0.81250"/>
<polygon points="-0.57812,-0.93750 -0.81250,-1.18750 -1.14062,-1.37500 -0.90625,-1.12500"/>
<polygon points="-0.60938,-1.62500 -0.60938,-1.03125 -0.57812,-0.93750 -0.57812,-1.53125"/>
<polygon points="-0.57812,-0.93750 -0.71875,-1.18750 -1.28125,-1.62500 -1.14062,-1.37500"/>
<polygon points="-0.06250,-2.01562 -0.06250,-1.76562 0.04688,-1.76562 0.04688,-2.01562"/>
<polygon points="3.54688,-1.84375 3.60938,-1.73438 3.93750,-1.92188 3.87500,-2.03125"/>
<polygon points="3.40625,-1.54688 3.79688,-1.62500 3.93750,-1.92188 3.54688,-1.84375"/>
<polygon points="3.67188,-1.43750 3.62500,-1.67188 3.40625,-1.54688 3.45312,-1.31250"/>
<polygon points="3.93750,-1.92188 3.71875,-1.65625 3.67188,-1.43750 3.89062,-1.70312"/>
<polygon points="3.28125,-1.84375 3.34375,-1.75000 3.54688,-1.84375 3.48438,-1.93750"/>
<polygon points="3.40625,-1.54688 3.67188,-1.54688 3.54688,-1.84375 3.28125,-1.84375"/>
<polygon points="-3.90625,-1.70312 -3.84375,-1.81250 -3.89062,-2.03125 -3.95312,-1.92188"/>
<polygon points="-3.68750,-1.43750 -3.67188,-1.76562 -3.89062,-2.03125 -3.90625,-1.70312"/>
<polygon points="-3.48438,-1.93750 -3.60938,-1.65625 -3.42188,-1.54688 -3.29688,-1.82812"/>
<polygon points="-3.48438,-1.93750 -3.53125,-1.70312 -3.46875,-1.31250 -3.42188,-1.54688"/>
<polygon points="-3.68750,-1.43750 -3.59375,-1.53125 -3.48438,-1.93750 -3.57812,-1.84375"/>
<polygon points="0.64062,-2.03125 0.32812,-2.03125 0.17188,-1.76562 0.48438,-1.76562"/>
<polygon points="-0.20312,-1.76562 -0.35938,-2.03125 -0.65625,-2.03125 -0.50000,-1.76562"/>
<polygon points="3.25000,-1.50000 2.98438,-1.51562 3.01562,-1.29688 3.28125,-1.28125"/>
<polygon points="2.84375,-2.14062 2.96875,-1.84375 3.25000,-1.50000 3.12500,-1.79688"/>
<polygon points="3.01562,-1.29688 2.95312,-1.64062 2.84375,-2.14062 2.90625,-1.79688"/>
<polygon points="3.01562,-1.29688 3.07812,-1.71875 2.90625,-1.79688 2.84375,-1.37500"/>
<polygon points="-3.14062,-1.79688 -3.20312,-1.39062 -2.92188,-1.73438 -2.85938,-2.14062"/>
<polygon points="-3.03125,-1.29688 -3.00000,-1.51562 -3.26562,-1.50000 -3.29688,-1.28125"/>
<polygon points="-2.85938,-1.37500 -3.09375,-1.57812 -3.26562,-1.50000 -3.03125,-1.29688"/>
<polygon points="-3.26562,-1.50000 -3.04688,-1.43750 -2.92188,-1.73438 -3.14062,-1.79688"/>
<polygon points="-3.60938,-2.01562 -3.56250,-2.10938 -3.78125,-2.23438 -3.82812,-2.14062"/>
<polygon points="3.76562,-2.25000 3.53125,-2.12500 3.57812,-2.03125 3.81250,-2.15625"/>
<polygon points="1.17188,-2.31250 1.18750,-1.95312 1.39062,-2.04688 1.37500,-2.40625"/>
<polygon points="1.17188,-2.31250 1.12500,-2.10938 1.34375,-1.84375 1.39062,-2.04688"/>
<polygon points="-1.40625,-2.04688 -1.20312,-1.95312 -1.18750,-2.31250 -1.39062,-2.40625"/>
<polygon points="-1.35938,-1.84375 -1.14062,-2.10938 -1.18750,-2.31250 -1.40625,-2.04688"/>
<polygon points="1.53125,-2.45312 1.73438,-2.15625 2.14062,-2.21875 1.93750,-2.51562"/>
<polygon points="1.82812,-1.35938 1.79688,-1.65625 1.53125,-2.45312 1.56250,-2.15625"/>
<polygon points="2.06250,-1.56250 1.95312,-1.50000 1.82812,-1.35938 1.93750,-1.42188"/>
<polygon points="2.17188,-1.82812 1.93750,-1.62500 1.82812,-1.35938 2.06250,-1.56250"/>
<polygon points="2.14062,-2.21875 1.79688,-1.75000 1.82812,-1.35938 2.17188,-1.82812"/>
<polygon points="1.82812,-1.35938 1.90625,-1.78125 1.56250,-2.15625 1.48438,-1.73438"/>
<polygon points="-1.95312,-2.51562 -1.98438,-2.21875 -1.57812,-2.15625 -1.54688,-2.45312"/>
<polygon points="-2.15625,-2.21875 -1.78125,-1.85938 -1.57812,-2.15625 -1.95312,-2.51562"/>
<polygon points="-2.18750,-1.82812 -1.60938,-1.76562 -1.57812,-2.15625 -2.15625,-2.21875"/>
<polygon points="-1.95312,-1.42188 -2.06250,-1.68750 -2.18750,-1.82812 -2.07812,-1.56250"/>
<polygon points="-1.84375,-1.35938 -2.07812,-1.76562 -2.18750,-1.82812 -1.95312,-1.42188"/>
<polygon points="-1.57812,-2.15625 -1.92188,-1.78125 -1.84375,-1.35938 -1.50000,-1.73438"/>
<polygon points="0.04688,-2.79688 -0.04688,-2.79688 -0.06250,-2.54688 0.03125,-2.54688"/>
<polygon points="3.67188,-2.39062 3.40625,-2.25000 3.39062,-2.20312 3.65625,-2.34375"/>
<polygon points="2.92188,-3.26562 3.21875,-2.85938 3.67188,-2.39062 3.37500,-2.79688"/>
<polygon points="3.39062,-2.20312 3.34375,-2.39062 2.92188,-3.26562 2.96875,-3.07812"/>
<polygon points="3.07812,-2.14062 3.20312,-2.37500 2.92188,-2.62500 2.79688,-2.39062"/>
<polygon points="3.07812,-2.14062 3.12500,-2.34375 2.96875,-2.82812 2.92188,-2.62500"/>
<polygon points="3.35938,-2.14062 3.17188,-2.03125 3.21875,-1.95312 3.40625,-2.06250"/>
<polygon points="3.35938,-2.14062 3.21875,-2.32812 3.07812,-2.14062 3.21875,-1.95312"/>
<polygon points="3.39062,-2.20312 3.10938,-2.20312 3.07812,-2.14062 3.35938,-2.14062"/>
<polygon points="3.07812,-2.14062 3.07812,-2.39062 2.96875,-3.07812 2.96875,-2.82812"/>
<polygon points="-3.39062,-2.79688 -3.43750,-2.60938 -2.98438,-3.07812 -2.93750,-3.26562"/>
<polygon points="-3.40625,-2.18750 -3.09375,-2.62500 -3.39062,-2.79688 -3.70312,-2.35938"/>
<polygon points="-2.93750,-2.62500 -3.21875,-2.37500 -3.09375,-2.14062 -2.81250,-2.39062"/>
<polygon points="-3.09375,-2.14062 -3.12500,-2.18750 -3.40625,-2.18750 -3.37500,-2.14062"/>
<polygon points="-2.98438,-3.07812 -3.09375,-2.39062 -3.09375,-2.14062 -2.98438,-2.82812"/>
<polygon points="-3.09375,-2.14062 -3.07812,-2.75000 -3.39062,-2.79688 -3.40625,-2.18750"/>
<polygon points="-3.23438,-1.93750 -3.18750,-2.03125 -3.37500,-2.14062 -3.42188,-2.04688"/>
<polygon points="-3.09375,-2.14062 -3.23438,-2.34375 -3.37500,-2.14062 -3.23438,-1.93750"/>
<polygon points="-2.98438,-2.82812 -3.14062,-2.34375 -3.09375,-2.14062 -2.93750,-2.62500"/>
<polygon points="0.17188,-3.59375 0.17188,-3.42188 0.45312,-3.35938 0.45312,-3.53125"/>
<polygon points="0.06250,-2.28125 0.17188,-2.28125 0.15625,-2.40625 0.04688,-2.40625"/>
<polygon points="1.09375,-2.45312 0.71875,-2.54688 0.37500,-2.26562 0.75000,-2.17188"/>
<polygon points="0.17188,-3.59375 0.23438,-3.42188 0.51562,-3.18750 0.45312,-3.35938"/>
<polygon points="0.51562,-3.18750 0.17188,-3.59375 0.17188,-3.21875 0.51562,-2.81250"/>
<polygon points="0.04688,-2.95312 0.17188,-2.98438 0.17188,-3.21875 0.04688,-3.18750"/>
<polygon points="0.18750,-2.92188 0.31250,-3.18750 0.17188,-3.21875 0.04688,-2.95312"/>
<polygon points="1.34375,-2.56250 1.21875,-2.73438 0.96875,-2.62500 1.09375,-2.45312"/>
<polygon points="1.20312,-2.79688 1.26562,-2.59375 1.34375,-2.56250 1.28125,-2.76562"/>
<polygon points="0.96875,-2.62500 1.06250,-2.62500 1.20312,-2.79688 1.10938,-2.79688"/>
<polygon points="0.54688,-2.78125 0.42188,-2.93750 0.34375,-2.96875 0.46875,-2.81250"/>
<polygon points="0.81250,-2.90625 0.67188,-2.89062 0.54688,-2.78125 0.68750,-2.79688"/>
<polygon points="0.34375,-2.96875 0.46875,-2.89062 0.81250,-2.90625 0.68750,-2.98438"/>
<polygon points="0.17188,-3.21875 0.34375,-3.01562 0.68750,-2.98438 0.51562,-3.18750"/>
<polygon points="0.82812,-2.56250 0.95312,-2.39062 1.09375,-2.45312 0.96875,-2.62500"/>
<polygon points="0.34375,-2.96875 0.18750,-3.07812 0.18750,-2.92188 0.34375,-2.81250"/>
<polygon points="0.34375,-2.96875 0.32812,-3.26562 0.17188,-3.21875 0.18750,-2.92188"/>
<polygon points="0.15625,-2.40625 0.59375,-2.53125 0.62500,-2.56250 0.18750,-2.43750"/>
<polygon points="0.06250,-2.28125 0.53125,-2.43750 0.62500,-2.56250 0.15625,-2.40625"/>
<polygon points="1.09375,-2.45312 0.78125,-2.46875 0.06250,-2.28125 0.37500,-2.26562"/>
<polygon points="0.62500,-2.56250 0.89062,-2.45312 1.09375,-2.45312 0.82812,-2.56250"/>
<polygon points="0.62500,-2.56250 0.46875,-2.64062 0.18750,-2.43750 0.34375,-2.35938"/>
<polygon points="0.18750,-2.92188 0.31250,-2.75000 0.46875,-2.64062 0.34375,-2.81250"/>
<polygon points="-0.06250,-3.59375 -0.06250,-3.34375 0.04688,-3.34375 0.04688,-3.59375"/>
<polygon points="-0.46875,-3.35938 -0.20312,-3.42188 -0.20312,-3.59375 -0.46875,-3.53125"/>
<polygon points="-0.20312,-3.21875 -0.20312,-3.59375 -0.46875,-3.35938 -0.46875,-2.98438"/>
<polygon points="-0.70312,-2.79688 -0.57812,-2.87500 -0.70312,-2.98438 -0.82812,-2.90625"/>
<polygon points="-0.39062,-2.26562 -0.73438,-2.54688 -1.10938,-2.45312 -0.76562,-2.17188"/>
<polygon points="-1.29688,-2.76562 -1.20312,-2.76562 -1.12500,-2.79688 -1.21875,-2.79688"/>
<polygon points="-1.35938,-2.56250 -1.18750,-2.59375 -1.12500,-2.79688 -1.29688,-2.76562"/>
<polygon points="-0.07812,-3.20312 -0.20312,-3.18750 -0.20312,-2.92188 -0.07812,-2.93750"/>
<polygon points="-0.20312,-3.21875 -0.32812,-2.93750 -0.20312,-2.92188 -0.07812,-3.20312"/>
<polygon points="-0.35938,-2.96875 -0.29688,-3.14062 -0.46875,-3.35938 -0.53125,-3.18750"/>
<polygon points="-0.20312,-3.21875 -0.35938,-3.26562 -0.35938,-2.96875 -0.20312,-2.92188"/>
<polygon points="-0.56250,-2.78125 -0.56250,-2.96875 -0.70312,-2.98438 -0.70312,-2.79688"/>
<polygon points="-0.48438,-2.81250 -0.62500,-3.01562 -0.70312,-2.98438 -0.56250,-2.78125"/>
<polygon points="-0.53125,-3.18750 -0.65625,-3.03125 -0.48438,-2.81250 -0.35938,-2.96875"/>
<polygon points="-0.09375,-2.28125 -0.81250,-2.46875 -1.10938,-2.45312 -0.39062,-2.26562"/>
<polygon points="-1.35938,-2.56250 -1.23438,-2.54688 -0.07812,-2.40625 -0.20312,-2.42188"/>
<polygon points="-0.09375,-2.28125 -0.34375,-2.39062 -1.35938,-2.56250 -1.10938,-2.45312"/>
<polygon points="-0.20312,-2.42188 -0.64062,-2.56250 -1.35938,-2.56250 -0.92188,-2.42188"/>
<polygon points="-0.35938,-2.81250 -0.20312,-2.76562 -0.20312,-2.92188 -0.35938,-2.96875"/>
<polygon points="-0.20312,-2.42188 -0.20312,-2.92188 -0.35938,-2.81250 -0.35938,-2.31250"/>
<polygon points="-0.20312,-2.42188 -0.48438,-2.64062 -0.64062,-2.56250 -0.35938,-2.34375"/>
<polygon points="-0.20312,-2.42188 -0.35938,-2.81250 -0.48438,-2.64062 -0.32812,-2.25000"/>
<polygon points="1.76562,-3.45312 1.14062,-3.43750 0.98438,-3.42188 1.60938,-3.43750"/>
<polygon points="2.00000,-3.90625 1.21875,-3.87500 0.98438,-3.42188 1.76562,-3.45312"/>
<polygon points="1.26562,-4.17188 1.76562,-3.95312 2.00000,-3.90625 1.50000,-4.12500"/>
<polygon points="0.98438,-4.04688 1.71875,-3.78125 2.00000,-3.90625 1.26562,-4.17188"/>
<polygon points="0.70312,-3.59375 0.92188,-3.81250 0.98438,-4.04688 0.76562,-3.82812"/>
<polygon points="0.98438,-3.42188 1.26562,-3.87500 0.98438,-4.04688 0.70312,-3.59375"/>
<polygon points="2.53125,-2.90625 2.20312,-3.09375 2.12500,-3.00000 2.45312,-2.81250"/>
<polygon points="2.57812,-3.04688 2.17188,-3.14062 2.12500,-3.00000 2.53125,-2.90625"/>
<polygon points="2.00000,-3.31250 2.12500,-3.00000 2.57812,-3.04688 2.45312,-3.35938"/>
<polygon points="1.82812,-3.09375 1.56250,-3.39062 0.98438,-3.42188 1.25000,-3.12500"/>
<polygon points="1.78125,-3.31250 1.78125,-3.18750 1.82812,-3.09375 1.82812,-3.21875"/>
<polygon points="1.60938,-3.43750 1.65625,-3.21875 1.82812,-3.09375 1.78125,-3.31250"/>
<polygon points="1.60938,-3.43750 0.76562,-3.76562 0.98438,-3.42188 1.82812,-3.09375"/>
<polygon points="2.57812,-3.29688 2.00000,-3.56250 2.00000,-3.31250 2.57812,-3.04688"/>
<polygon points="2.46875,-3.57812 1.89062,-3.59375 2.00000,-3.31250 2.57812,-3.29688"/>
<polygon points="2.37500,-3.68750 1.90625,-3.42188 2.00000,-3.31250 2.46875,-3.57812"/>
<polygon points="2.00000,-3.31250 2.23438,-3.76562 2.00000,-3.90625 1.76562,-3.45312"/>
<polygon points="2.00000,-3.31250 2.37500,-3.09375 2.37500,-3.68750 2.00000,-3.90625"/>
<polygon points="-0.78125,-3.82812 -1.06250,-3.65625 -1.00000,-3.42188 -0.71875,-3.59375"/>
<polygon points="-1.62500,-3.43750 -1.12500,-3.65625 -1.51562,-4.12500 -2.01562,-3.90625"/>
<polygon points="-1.28125,-3.12500 -1.17188,-3.81250 -1.51562,-4.12500 -1.62500,-3.43750"/>
<polygon points="-0.78125,-3.82812 -1.06250,-3.53125 -1.28125,-3.12500 -1.00000,-3.42188"/>
<polygon points="-1.28125,-4.17188 -1.06250,-3.95312 -0.78125,-3.82812 -1.00000,-4.04688"/>
<polygon points="-1.51562,-4.12500 -1.01562,-3.78125 -0.78125,-3.82812 -1.28125,-4.17188"/>
<polygon points="-1.84375,-3.09375 -1.79688,-3.18750 -1.79688,-3.31250 -1.84375,-3.21875"/>
<polygon points="-1.84375,-3.09375 -1.67188,-3.21875 -1.62500,-3.43750 -1.79688,-3.31250"/>
<polygon points="-1.62500,-3.43750 -1.84375,-3.09375 -1.28125,-3.12500 -1.06250,-3.46875"/>
<polygon points="-2.54688,-2.90625 -2.54688,-3.15625 -2.59375,-3.29688 -2.59375,-3.04688"/>
<polygon points="-2.46875,-2.81250 -2.51562,-3.20312 -2.59375,-3.29688 -2.54688,-2.90625"/>
<polygon points="-2.14062,-3.00000 -2.26562,-3.48438 -2.59375,-3.29688 -2.46875,-2.81250"/>
<polygon points="-2.01562,-3.90625 -2.10938,-3.64062 -2.14062,-3.00000 -2.04688,-3.26562"/>
<polygon points="-2.48438,-3.57812 -2.10938,-3.79688 -2.01562,-3.90625 -2.39062,-3.68750"/>
<polygon points="-2.59375,-3.29688 -2.12500,-3.62500 -2.01562,-3.90625 -2.48438,-3.57812"/>
<polygon points="-2.04688,-3.26562 -1.92188,-3.39062 -2.01562,-3.90625 -2.14062,-3.78125"/>
<polygon points="-2.01562,-3.90625 -1.78125,-3.45312 -1.62500,-3.43750 -1.85938,-3.89062"/>
<polygon points="-1.78125,-3.45312 -1.87500,-3.96875 -2.01562,-3.90625 -1.92188,-3.39062"/>
<polygon points="0.46875,-3.70312 0.46875,-3.90625 0.04688,-3.98438 0.04688,-3.78125"/>
<polygon points="0.04688,-3.98438 0.43750,-3.90625 0.57812,-3.93750 0.18750,-4.01562"/>
<polygon points="0.53125,-4.35938 0.28125,-4.28125 0.85938,-4.17188 1.10938,-4.25000"/>
<polygon points="0.53125,-4.35938 0.40625,-4.28125 0.73438,-4.09375 0.85938,-4.17188"/>
<polygon points="0.73438,-4.09375 0.34375,-4.17188 0.18750,-4.01562 0.57812,-3.93750"/>
<polygon points="0.17188,-4.37500 0.37500,-4.10938 0.73438,-4.09375 0.53125,-4.35938"/>
<polygon points="-0.07812,-3.76562 -0.18750,-4.00000 -0.59375,-3.93750 -0.48438,-3.70312"/>
<polygon points="-0.20312,-4.01562 -0.20312,-3.78125 -0.07812,-3.76562 -0.07812,-4.00000"/>
<polygon points="-0.54688,-4.35938 -0.54688,-4.00000 -0.20312,-4.01562 -0.20312,-4.37500"/>
<polygon points="-0.87500,-4.17188 -0.29688,-4.28125 -0.54688,-4.35938 -1.12500,-4.25000"/>
<polygon points="-0.54688,-4.35938 -0.42188,-4.10938 -0.07812,-3.76562 -0.20312,-4.01562"/>
<polygon points="-0.07812,-3.76562 -0.23438,-3.92188 -0.75000,-4.09375 -0.59375,-3.93750"/>
<polygon points="-0.75000,-4.09375 -0.42188,-4.28125 -0.54688,-4.35938 -0.87500,-4.17188"/>
<polygon points="0.04688,-4.37500 -0.04688,-4.37500 -0.06250,-4.12500 0.03125,-4.12500"/>
<polygon points="-0.06250,4.35938 0.04688,4.37500 0.04688,4.10938"/>
<polygon points="-1.35938,4.10938 -1.39062,4.07812 -1.67188,4.04688"/>
<polygon points="1.45312,4.00000 1.45312,4.12500 1.50000,3.95312"/>
<polygon points="-1.56250,3.71875 -1.00000,3.40625 -1.34375,3.01562"/>
<polygon points="0.23438,3.51562 0.15625,3.45312 0.03125,3.59375"/>
<polygon points="0.03125,3.59375 0.51562,3.50000 0.84375,3.31250"/>
<polygon points="0.03125,3.59375 0.20312,3.31250 0.10938,3.12500"/>
<polygon points="-0.76562,2.15625 -1.20312,2.93750 -0.17188,3.57812"/>
<polygon points="3.59375,2.00000 3.53125,2.09375 3.76562,2.21875"/>
<polygon points="-2.90625,3.28125 -3.40625,2.18750 -3.67188,2.32812"/>
<polygon points="-2.60938,3.51562 -2.95312,2.26562 -3.40625,2.18750"/>
<polygon points="2.59375,3.51562 3.68750,2.34375 3.39062,2.17188"/>
<polygon points="-0.65625,2.01562 -0.56250,2.03125 -0.57812,1.90625"/>
<polygon points="0.54688,2.04688 0.64062,2.01562 0.56250,1.89062"/>
<polygon points="1.34375,1.82812 0.90625,2.09375 1.37500,2.39062"/>
<polygon points="-0.92188,2.07812 -1.35938,1.82812 -1.39062,2.39062"/>
<polygon points="1.89062,2.42188 1.59375,1.60938 1.56250,2.14062"/>
<polygon points="1.56250,2.14062 1.53125,2.43750 1.87500,2.50000"/>
<polygon points="-1.89062,2.50000 -1.57812,2.14062 -1.60938,1.60938"/>
<polygon points="-1.89062,2.50000 -1.54688,2.43750 -1.57812,2.14062"/>
<polygon points="2.59375,1.71875 2.71875,2.21875 3.29688,1.26562"/>
<polygon points="-2.73438,2.21875 -2.65625,1.53125 -3.21875,1.31250"/>
<polygon points="0.98438,0.98438 1.51562,1.46875 1.21875,1.15625"/>
<polygon points="1.21875,1.21875 1.42188,1.56250 1.51562,1.46875"/>
<polygon points="-1.23438,1.15625 -1.53125,1.46875 -1.43750,1.56250"/>
<polygon points="-0.73438,1.85938 -0.57812,0.92188 -1.29688,1.64062"/>
<polygon points="1.07812,1.29688 0.56250,0.90625 0.81250,1.95312"/>
<polygon points="1.68750,0.43750 1.96875,0.70312 2.06250,0.45312"/>
<polygon points="-1.70312,0.43750 -2.07812,0.45312 -1.98438,0.70312"/>
<polygon points="0.06250,1.07812 0.28125,2.51562 0.42188,0.79688"/>
<polygon points="-0.03125,2.46875 -0.18750,0.37500 -0.45312,0.82812"/>
<polygon points="-0.25000,2.65625 -0.01562,3.06250 0.28125,2.51562"/>
<polygon points="0.20312,0.29688 0.42188,0.67188 0.42188,0.28125"/>
<polygon points="-0.45312,0.29688 -0.45312,0.70312 -0.21875,0.29688"/>
<polygon points="2.15625,2.90625 2.00000,2.68750 2.15625,2.96875"/>
<polygon points="2.07812,3.26562 1.95312,3.03125 2.06250,3.34375"/>
<polygon points="1.73438,3.95312 1.68750,3.68750 1.68750,4.00000"/>
<polygon points="2.57812,2.93750 2.64062,2.70312 2.56250,2.85938"/>
<polygon points="2.53125,2.03125 2.51562,1.79688 2.48438,1.96875"/>
<polygon points="1.89062,0.82812 1.78125,0.65625 1.82812,0.81250"/>
<polygon points="1.56250,0.54688 1.39062,0.35938 1.50000,0.50000"/>
<polygon points="0.60938,0.20312 0.84375,0.34375 0.56250,0.12500"/>
<polygon points="0.56250,0.53125 0.82812,0.45312 0.85938,0.39062"/>
<polygon points="1.00000,0.67188 0.75000,0.75000 1.06250,0.70312"/>
<polygon points="1.14062,0.64062 1.32812,0.87500 1.18750,0.64062"/>
<polygon points="1.32812,0.87500 1.04688,0.90625 1.37500,0.92188"/>
<polygon points="1.79688,1.15625 1.90625,1.18750 1.89062,1.14062"/>
<polygon points="1.84375,1.43750 1.57812,1.37500 1.87500,1.50000"/>
<polygon points="1.98438,1.78125 1.76562,1.67188 2.04688,1.84375"/>
<polygon points="2.12500,2.14062 1.90625,2.00000 2.14062,2.20312"/>
<polygon points="2.17188,2.51562 1.98438,2.32812 2.18750,2.59375"/>
<polygon points="1.92188,3.62500 1.85938,3.35938 1.84375,3.43750"/>
<polygon points="2.48438,3.37500 2.57812,3.17188 2.48438,3.31250"/>
<polygon points="2.59375,2.48438 2.60938,2.25000 2.56250,2.42188"/>
<polygon points="2.39062,1.60938 2.35938,1.42188 2.32812,1.37500"/>
<polygon points="2.17188,1.20312 2.14062,1.07812 2.07812,0.98438"/>
<polygon points="1.07812,0.20312 0.98438,0.15625 1.10938,0.28125"/>
<polygon points="0.82812,0.45312 0.92188,0.42188 0.90625,0.35938"/>
<polygon points="0.98438,0.62500 0.82812,0.45312 0.78125,0.46875"/>
<polygon points="1.60938,1.14062 1.32812,1.10938 1.65625,1.18750"/>
<polygon points="1.73438,1.14062 1.79688,1.15625 1.89062,1.14062"/>
<polygon points="1.84375,1.37500 1.79688,1.15625 1.73438,1.14062"/>
<polygon points="2.28125,2.60938 2.15625,2.96875 2.29688,2.65625"/>
<polygon points="2.25000,3.01562 2.12500,3.25000 2.26562,3.06250"/>
<polygon points="1.76562,4.00000 1.96875,3.76562 1.73438,3.95312"/>
<polygon points="2.39062,1.60938 2.35938,1.53125 2.32812,1.54688"/>
<polygon points="2.17188,1.20312 2.12500,1.10938 2.10938,1.15625"/>
<polygon points="1.43750,0.56250 1.56250,0.54688 1.50000,0.50000"/>
<polygon points="0.84375,0.34375 0.85938,0.39062 0.90625,0.35938"/>
<polygon points="1.73438,1.14062 1.84375,1.43750 1.84375,1.37500"/>
<polygon points="1.98438,1.78125 2.04688,1.84375 2.06250,1.78125"/>
<polygon points="2.14062,1.84375 2.14062,2.20312 2.18750,1.85938"/>
<polygon points="2.17188,2.51562 2.18750,2.59375 2.28125,2.25000"/>
<polygon points="2.18750,2.92188 2.32812,3.09375 2.20312,2.89062"/>
<polygon points="2.14062,3.40625 2.20312,3.48438 2.12500,3.25000"/>
<polygon points="1.92188,3.62500 1.90625,3.68750 2.14062,3.43750"/>
<polygon points="2.42188,3.26562 2.48438,3.31250 2.37500,3.07812"/>
<polygon points="1.45312,0.85938 1.57812,0.82812 1.32812,0.82812"/>
<polygon points="1.84375,1.37500 1.87500,1.50000 1.89062,1.43750"/>
<polygon points="2.17188,2.15625 2.34375,2.26562 2.15625,2.09375"/>
<polygon points="2.28125,2.60938 2.37500,2.67188 2.21875,2.50000"/>
<polygon points="1.96875,3.79688 2.03125,3.85938 1.98438,3.60938"/>
<polygon points="1.10938,0.28125 0.84375,0.34375 1.01562,0.34375"/>
<polygon points="1.18750,0.64062 1.23438,0.57812 0.98438,0.62500"/>
<polygon points="1.45312,0.85938 1.60938,1.14062 1.62500,1.09375"/>
<polygon points="2.12500,1.53125 1.84375,1.37500 1.89062,1.43750"/>
<polygon points="1.17188,0.29688 1.10938,0.28125 1.01562,0.34375"/>
<polygon points="1.45312,0.85938 1.62500,0.87500 1.57812,0.82812"/>
<polygon points="1.96875,1.46875 2.01562,1.76562 2.01562,1.50000"/>
<polygon points="2.26562,3.06250 2.31250,3.15625 2.37500,3.12500"/>
<polygon points="2.14062,3.43750 2.18750,3.54688 2.25000,3.53125"/>
<polygon points="2.00000,3.89062 2.26562,3.68750 2.26562,3.64062"/>
<polygon points="1.06250,0.34375 1.01562,0.34375 1.29688,0.60938"/>
<polygon points="1.43750,0.56250 1.39062,0.54688 1.62500,0.87500"/>
<polygon points="2.28125,2.25000 2.35938,2.32812 2.39062,2.28125"/>
<polygon points="2.29688,2.65625 2.37500,2.75000 2.40625,2.68750"/>
<polygon points="1.73438,1.14062 1.85938,1.12500 1.62500,1.09375"/>
<polygon points="2.48438,2.37500 2.37500,2.67188 2.40625,2.68750"/>
<polygon points="2.03125,1.17188 2.07812,1.48438 2.10938,1.48438"/>
<polygon points="2.14062,1.84375 2.23438,1.85938 2.03125,1.71875"/>
<polygon points="2.26562,1.56250 2.23438,1.85938 2.28125,1.92188"/>
<polygon points="2.25000,3.48438 2.40625,3.25000 2.20312,3.48438"/>
<polygon points="2.32812,3.09375 2.37500,3.12500 2.37500,3.07812"/>
<polygon points="1.82812,0.81250 1.57812,0.78125 1.73438,0.82812"/>
<polygon points="2.50000,2.84375 2.48438,2.79688 2.32812,3.09375"/>
<polygon points="2.57812,2.93750 2.56250,2.85938 2.48438,2.79688"/>
<polygon points="1.85938,1.06250 1.89062,1.14062 1.93750,1.12500"/>
<polygon points="2.10938,1.15625 1.85938,1.06250 2.03125,1.17188"/>
<polygon points="2.39062,2.23438 2.39062,2.28125 2.59375,2.48438"/>
<polygon points="2.39062,1.93750 2.34375,2.26562 2.39062,2.28125"/>
<polygon points="2.32812,1.54688 2.09375,1.40625 2.25000,1.54688"/>
<polygon points="2.48438,1.96875 2.28125,1.81250 2.39062,1.93750"/>
<polygon points="2.71875,0.65625 3.25000,0.75000 2.90625,0.10938"/>
<polygon points="2.10938,0.85938 2.42188,1.31250 2.40625,1.00000"/>
<polygon points="2.71875,0.65625 2.90625,0.10938 2.10938,0.85938"/>
<polygon points="-3.12500,0.37500 -2.73438,0.65625 -2.25000,0.42188"/>
<polygon points="-2.43750,1.31250 -2.12500,0.85938 -2.25000,0.42188"/>
<polygon points="-2.73438,0.65625 -2.42188,1.00000 -2.25000,0.42188"/>
<polygon points="4.06250,0.64062 3.56250,1.82812 4.10938,1.50000"/>
<polygon points="3.28125,1.81250 3.56250,1.82812 4.06250,0.64062"/>
<polygon points="-3.90625,2.00000 -3.56250,1.82812 -4.28125,0.34375"/>
<polygon points="-1.42188,0.43750 -1.62500,0.51562 -1.46875,0.50000"/>
<polygon points="-2.32812,1.43750 -2.46875,1.62500 -2.34375,1.50000"/>
<polygon points="-2.34375,1.50000 -2.26562,1.75000 -2.28125,1.59375"/>
<polygon points="-2.50000,1.85938 -2.59375,2.06250 -2.50000,1.92188"/>
<polygon points="-2.50000,1.92188 -2.39062,2.14062 -2.42188,1.98438"/>
<polygon points="-2.59375,2.29688 -2.65625,2.51562 -2.57812,2.35938"/>
<polygon points="-2.57812,2.35938 -2.43750,2.56250 -2.42188,2.53125"/>
<polygon points="-2.54688,3.20312 -2.53125,3.43750 -2.51562,3.28125"/>
<polygon points="-2.32812,3.67188 -2.40625,3.62500 -2.39062,3.67188"/>
<polygon points="-1.84375,3.78125 -1.59375,3.84375 -1.89062,3.73438"/>
<polygon points="-2.14062,3.09375 -1.92188,3.23438 -2.17188,3.03125"/>
<polygon points="-2.17188,2.32812 -2.01562,2.54688 -2.15625,2.28125"/>
<polygon points="-2.09375,1.95312 -1.96875,2.18750 -2.07812,1.89062"/>
<polygon points="-1.93750,1.60938 -1.87500,1.85938 -1.92188,1.54688"/>
<polygon points="-1.75000,1.28125 -1.70312,1.53125 -1.70312,1.21875"/>
<polygon points="-1.48438,1.00000 -1.50000,1.26562 -1.43750,0.96875"/>
<polygon points="-0.84375,0.60938 -0.95312,0.84375 -0.78125,0.56250"/>
<polygon points="-0.76562,0.45312 -0.57812,0.46875 -0.76562,0.42188"/>
<polygon points="-0.67188,0.20312 -0.57812,0.21875 -0.65625,0.17188"/>
<polygon points="-0.59375,0.07812 -0.82812,0.09375 -0.65625,0.10938"/>
<polygon points="-1.01562,0.21875 -1.23438,0.26562 -1.07812,0.26562"/>
<polygon points="-1.78125,0.71875 -1.96875,0.84375 -1.81250,0.78125"/>
<polygon points="-2.17188,1.10938 -2.25000,1.21875 -2.10938,1.10938"/>
<polygon points="-2.10938,1.10938 -2.09375,1.37500 -2.06250,1.32812"/>
<polygon points="-2.60938,2.75000 -2.62500,2.98438 -2.57812,2.81250"/>
<polygon points="-2.54688,3.20312 -2.51562,3.28125 -2.48438,3.26562"/>
<polygon points="-2.39062,3.67188 -2.17188,3.75000 -2.26562,3.68750"/>
<polygon points="-1.18750,0.76562 -1.25000,1.03125 -1.12500,0.73438"/>
<polygon points="-0.65625,0.10938 -0.76562,0.31250 -0.59375,0.07812"/>
<polygon points="-2.32812,1.43750 -2.34375,1.50000 -2.28125,1.59375"/>
<polygon points="-2.50000,2.85938 -2.39062,2.56250 -2.43750,2.56250"/>
<polygon points="-2.09375,3.84375 -2.09375,3.75000 -2.20312,3.75000"/>
<polygon points="-1.81250,3.98438 -1.84375,3.78125 -1.90625,3.79688"/>
<polygon points="-2.20312,2.31250 -2.29688,2.60938 -2.17188,2.32812"/>
<polygon points="-2.07812,1.04688 -2.10938,1.10938 -2.07812,1.21875"/>
<polygon points="-2.39062,3.01562 -2.40625,2.95312 -2.60938,2.75000"/>
<polygon points="-2.43750,3.25000 -2.54688,3.20312 -2.48438,3.26562"/>
<polygon points="-2.28125,1.54688 -2.28125,1.59375 -2.04688,1.37500"/>
<polygon points="-2.26562,1.75000 -2.42188,1.98438 -2.21875,1.75000"/>
<polygon points="-2.39062,2.14062 -2.50000,2.43750 -2.34375,2.14062"/>
<polygon points="-2.25000,3.37500 -2.29688,3.42188 -2.28125,3.65625"/>
<polygon points="-2.00000,3.75000 -2.12500,3.73438 -2.17188,3.75000"/>
<polygon points="-2.09375,3.75000 -1.89062,3.82812 -2.00000,3.75000"/>
<polygon points="-2.06250,1.17188 -2.07812,1.21875 -1.79688,1.03125"/>
<polygon points="-2.39062,2.09375 -2.39062,2.14062 -2.34375,2.14062"/>
<polygon points="-2.43750,3.25000 -2.40625,3.29688 -2.35938,2.96875"/>
<polygon points="-1.81250,0.98438 -1.84375,1.03125 -1.79688,1.03125"/>
<polygon points="-1.98438,1.42188 -2.01562,1.31250 -2.06250,1.32812"/>
<polygon points="-2.17188,1.78125 -2.20312,1.67188 -2.26562,1.70312"/>
<polygon points="-2.26562,2.21875 -2.32812,2.07812 -2.39062,2.09375"/>
<polygon points="-2.25000,3.37500 -2.04688,3.50000 -2.28125,3.31250"/>
<polygon points="-2.04688,3.50000 -2.03125,3.73438 -2.00000,3.75000"/>
<polygon points="-1.75000,1.09375 -1.75000,0.98438 -1.81250,0.98438"/>
<polygon points="-2.29688,2.60938 -2.39062,2.48438 -2.42188,2.53125"/>
<polygon points="-2.29688,2.98438 -2.37500,2.90625 -2.40625,2.95312"/>
<polygon points="-2.00000,3.75000 -2.01562,3.43750 -2.06250,3.39062"/>
<polygon points="-1.75000,0.82812 -1.79688,0.81250 -1.79688,0.87500"/>
<polygon points="-2.26562,3.00000 -2.35938,2.96875 -2.17188,3.12500"/>
<polygon points="-2.15625,3.39062 -2.20312,3.37500 -2.04688,3.50000"/>
<polygon points="-1.79688,0.87500 -1.50000,0.75000 -1.50000,0.70312"/>
<polygon points="-1.46875,0.50000 -1.53125,0.71875 -1.46875,0.59375"/>
<polygon points="-2.17188,3.12500 -2.20312,3.37500 -2.15625,3.39062"/>
<polygon points="-1.45312,0.82812 -1.43750,0.70312 -1.50000,0.70312"/>
<polygon points="-2.15625,3.39062 -2.14062,3.09375 -2.17188,3.03125"/>
<polygon points="-1.45312,0.84375 -1.50000,0.75000 -1.53125,0.98438"/>
<polygon points="-1.15625,0.46875 -1.21875,0.51562 -1.15625,0.51562"/>
<polygon points="-1.07812,0.26562 -1.21875,0.51562 -1.07812,0.35938"/>
<polygon points="-1.12500,0.57812 -1.09375,0.48438 -1.15625,0.46875"/>
<polygon points="-2.18750,2.70312 -2.20312,2.64062 -2.29688,2.98438"/>
<polygon points="-1.14062,0.62500 -1.14062,0.54688 -1.21875,0.73438"/>
<polygon points="-0.81250,0.32812 -1.07812,0.35938 -0.76562,0.35938"/>
<polygon points="-2.29688,2.60938 -2.39062,2.56250 -2.23438,2.73438"/>
<polygon points="-0.76562,0.42188 -0.70312,0.32812 -0.76562,0.35938"/>
<polygon points="-0.76562,0.45312 -0.76562,0.35938 -0.90625,0.57812"/>
<polygon points="-0.82812,0.56250 -0.82812,0.51562 -0.90625,0.57812"/>
<polygon points="-2.20312,2.31250 -2.34375,2.14062 -2.21875,2.34375"/>
<polygon points="-0.82812,0.56250 -1.14062,0.62500 -0.84375,0.60938"/>
<polygon points="-1.14062,0.62500 -0.90625,0.57812 -1.12500,0.57812"/>
<polygon points="-2.14062,1.98438 -2.28125,2.17188 -2.26562,2.21875"/>
<polygon points="-2.21875,1.75000 -2.14062,1.98438 -2.12500,1.92188"/>
<polygon points="-1.18750,0.76562 -1.21875,0.73438 -1.45312,0.82812"/>
<polygon points="-2.00000,1.62500 -2.17188,1.78125 -2.15625,1.82812"/>
<polygon points="-2.15625,1.82812 -1.93750,1.60938 -2.00000,1.62500"/>
<polygon points="-1.98438,1.42188 -2.04688,1.37500 -2.00000,1.62500"/>
<polygon points="-1.76562,1.15625 -1.43750,0.96875 -1.75000,1.09375"/>
<polygon points="-1.76562,1.15625 -1.75000,1.09375 -1.79688,1.03125"/>
<polygon points="-1.98438,1.46875 -1.75000,1.25000 -1.98438,1.42188"/>
<polygon points="-1.75000,1.25000 -1.79688,1.03125 -1.78125,1.26562"/>
<polygon points="0.23438,0.03125 0.42188,0.20312 0.42188,0.03125"/>
<polygon points="-0.45312,0.20312 -0.25000,0.03125 -0.45312,0.03125"/>
<polygon points="0.42188,-0.21875 0.21875,-0.09375 0.42188,-0.04688"/>
<polygon points="-0.45312,-0.21875 -0.45312,-0.04688 -0.23438,-0.09375"/>
<polygon points="0.00000,0.23438 -0.07812,0.06250 -0.17188,0.18750"/>
<polygon points="-0.07812,-0.25000 0.15625,-0.14062 0.09375,-0.23438"/>
<polygon points="-0.17188,0.18750 -0.01562,-0.21875 -0.15625,-0.20312"/>
<polygon points="0.15625,0.18750 0.15625,-0.14062 0.00000,0.23438"/>
<polygon points="0.15625,-0.14062 -0.01562,-0.21875 0.06250,-0.03125"/>
<polygon points="2.26562,-0.26562 2.26562,0.25000 2.76562,-0.00000"/>
<polygon points="-2.28125,-0.26562 -2.78125,-0.00000 -2.28125,0.25000"/>
<polygon points="-0.78125,-0.03125 -0.57812,-0.09375 -0.57812,-0.29688"/>
<polygon points="1.81250,-0.31250 1.03125,-0.00000 2.09375,0.28125"/>
<polygon points="0.56250,-0.07812 0.76562,-0.03125 0.56250,-0.31250"/>
<polygon points="-2.10938,0.28125 -1.04688,-0.00000 -1.82812,-0.31250"/>
<polygon points="2.01562,-0.65625 1.75000,-0.46875 2.06250,-0.46875"/>
<polygon points="-2.03125,-0.65625 -2.07812,-0.46875 -1.76562,-0.46875"/>
<polygon points="0.42188,-0.68750 0.18750,-0.28125 0.42188,-0.29688"/>
<polygon points="0.07812,-0.64062 0.15625,-0.35938 0.34375,-0.68750"/>
<polygon points="-0.17188,-0.35938 -0.09375,-0.64062 -0.35938,-0.68750"/>
<polygon points="-0.45312,-0.70312 -0.45312,-0.31250 -0.20312,-0.28125"/>
<polygon points="3.39062,0.62500 3.37500,-0.57812 3.25000,-0.31250"/>
<polygon points="2.23438,-0.43750 3.10938,-0.39062 2.60938,-0.73438"/>
<polygon points="-3.12500,-0.39062 -2.25000,-0.43750 -2.42188,-0.82812"/>
<polygon points="-4.25000,0.15625 -3.59375,0.48438 -3.56250,-0.82812"/>
<polygon points="-3.56250,-0.82812 -3.50000,0.28125 -3.26562,0.29688"/>
<polygon points="1.42188,-1.57812 1.28125,-1.09375 1.68750,-1.28125"/>
<polygon points="0.96875,-0.98438 0.56250,-0.75000 0.59375,-0.57812"/>
<polygon points="0.59375,-0.57812 0.78125,-0.25000 0.81250,-0.56250"/>
<polygon points="1.21875,-1.23438 0.59375,-0.57812 1.28125,-1.09375"/>
<polygon points="-1.23438,-1.23438 -1.43750,-1.57812 -1.70312,-1.28125"/>
<polygon points="-0.82812,-0.56250 -0.79688,-0.25000 -0.60938,-0.57812"/>
<polygon points="-1.70312,-1.28125 -0.98438,-0.98438 -1.23438,-1.23438"/>
<polygon points="-0.60938,-0.57812 -0.57812,-0.75000 -0.98438,-0.98438"/>
<polygon points="4.07812,-1.59375 3.98438,-1.00000 4.25000,-1.04688"/>
<polygon points="-4.26562,-1.04688 -4.00000,-1.00000 -4.09375,-1.59375"/>
<polygon points="0.56250,-0.92188 1.26562,-1.62500 0.59375,-1.62500"/>
<polygon points="-0.45312,-1.60938 -0.43750,-0.87500 -0.01562,-1.45312"/>
<polygon points="0.01562,-1.43750 0.42188,-0.87500 0.42188,-1.62500"/>
<polygon points="0.42188,-1.62500 -0.45312,-1.60938 -0.01562,-1.45312"/>
<polygon points="-0.01562,-1.45312 0.01562,-1.43750 0.42188,-1.62500"/>
<polygon points="-0.57812,-0.93750 -0.60938,-1.62500 -1.28125,-1.62500"/>
<polygon points="1.18750,-1.76562 0.81250,-1.96875 0.65625,-1.76562"/>
<polygon points="-0.81250,-1.96875 -1.20312,-1.76562 -0.67188,-1.76562"/>
<polygon points="3.40625,-1.54688 3.67188,-1.43750 3.93750,-1.92188"/>
<polygon points="-3.68750,-1.43750 -3.57812,-1.84375 -3.89062,-2.03125"/>
<polygon points="-3.68750,-1.43750 -3.46875,-1.31250 -3.48438,-1.93750"/>
<polygon points="0.18750,-2.12500 0.17188,-1.76562 0.64062,-2.03125"/>
<polygon points="-0.20312,-2.12500 -0.65625,-2.03125 -0.20312,-1.76562"/>
<polygon points="3.01562,-1.29688 3.25000,-1.50000 2.84375,-2.14062"/>
<polygon points="-2.85938,-1.37500 -2.92188,-1.73438 -3.26562,-1.50000"/>
<polygon points="-3.78125,-2.23438 -3.60938,-2.01562 -3.54688,-2.10938"/>
<polygon points="1.17188,-2.31250 0.90625,-2.09375 1.34375,-1.84375"/>
<polygon points="-1.35938,-1.84375 -0.92188,-2.10938 -1.18750,-2.31250"/>
<polygon points="1.53125,-2.45312 1.82812,-1.35938 2.14062,-2.21875"/>
<polygon points="-2.18750,-1.82812 -1.84375,-1.35938 -1.57812,-2.15625"/>
<polygon points="1.50000,-2.62500 1.73438,-2.65625 1.45312,-2.76562"/>
<polygon points="-1.75000,-2.65625 -1.51562,-2.62500 -1.46875,-2.76562"/>
<polygon points="-0.06250,-2.81250 -0.06250,-2.54688 0.04688,-2.79688"/>
<polygon points="3.39062,-2.20312 3.67188,-2.39062 2.92188,-3.26562"/>
<polygon points="3.07812,-2.14062 3.39062,-2.20312 2.96875,-3.07812"/>
<polygon points="-3.09375,-2.14062 -2.98438,-3.07812 -3.39062,-2.79688"/>
<polygon points="0.82812,-3.26562 1.01562,-3.17188 0.73438,-3.39062"/>
<polygon points="-1.03125,-3.17188 -0.84375,-3.26562 -0.75000,-3.39062"/>
<polygon points="1.34375,-2.56250 1.20312,-2.79688 0.96875,-2.62500"/>
<polygon points="0.34375,-2.96875 0.54688,-2.78125 0.81250,-2.90625"/>
<polygon points="0.17188,-3.21875 0.34375,-2.96875 0.68750,-2.98438"/>
<polygon points="0.06250,-2.28125 1.09375,-2.45312 0.62500,-2.56250"/>
<polygon points="0.18750,-2.92188 0.18750,-2.43750 0.46875,-2.64062"/>
<polygon points="-1.35938,-2.56250 -0.98438,-2.62500 -1.12500,-2.79688"/>
<polygon points="-0.35938,-2.96875 -0.20312,-3.21875 -0.46875,-3.35938"/>
<polygon points="-0.48438,-2.81250 -0.53125,-3.18750 -0.70312,-2.98438"/>
<polygon points="-0.84375,-2.56250 -0.98438,-2.62500 -1.35938,-2.56250"/>
<polygon points="-0.09375,-2.28125 -0.07812,-2.40625 -1.35938,-2.56250"/>
<polygon points="2.00000,-3.90625 0.98438,-4.04688 0.98438,-3.42188"/>
<polygon points="-1.28125,-3.12500 -0.78125,-3.82812 -1.51562,-4.12500"/>
<polygon points="-2.14062,-3.00000 -2.01562,-3.90625 -2.59375,-3.29688"/>
<polygon points="0.46875,-3.70312 0.57812,-3.93750 0.04688,-3.98438"/>
<polygon points="0.73438,-4.09375 0.17188,-4.37500 0.18750,-4.01562"/>
<polygon points="-0.07812,-3.76562 -0.54688,-4.35938 -0.75000,-4.09375"/>
<polygon points="-0.06250,-4.39062 -0.06250,-4.12500 0.04688,-4.37500"/>
</g>
</svg>